<svg xmlns="http://www.w3.org/2000/svg" viewBox="0 0 960 560"><defs><style>.cls-1{fill:#d2a470;}.cls-2{opacity:0.39;}.cls-3{fill:#454545;}.cls-4{fill:#0075f6;}.cls-5{fill:#bad3ff;}.cls-6{fill:#442cff;}.cls-10,.cls-11,.cls-12,.cls-13,.cls-14,.cls-15,.cls-16,.cls-20,.cls-21,.cls-22,.cls-23,.cls-24,.cls-29,.cls-39,.cls-43,.cls-45,.cls-47,.cls-48,.cls-7,.cls-8,.cls-9{fill:none;}.cls-7{stroke:#0000b4;}.cls-10,.cls-11,.cls-12,.cls-13,.cls-14,.cls-15,.cls-16,.cls-20,.cls-21,.cls-22,.cls-23,.cls-24,.cls-25,.cls-29,.cls-39,.cls-43,.cls-45,.cls-47,.cls-48,.cls-7,.cls-8,.cls-9{stroke-miterlimit:10;}.cls-8{stroke:#0000a6;}.cls-9{stroke:#100094;}.cls-10{stroke:#1700a9;}.cls-11{stroke:#0004a9;}.cls-12{stroke:#06006a;}.cls-13{stroke:#08009d;}.cls-14{stroke:#0600de;}.cls-15{stroke:#00089d;}.cls-16{stroke:#040097;}.cls-17{fill:#0e8d38;}.cls-18{fill:#bbd68b;}.cls-19{fill:#5cb130;}.cls-20{stroke:#19381d;}.cls-21{stroke:#17371d;}.cls-22{stroke:#005304;}.cls-23{stroke:#002f09;}.cls-24{stroke:#002602;}.cls-25{fill:#eed088;stroke:#eeb34f;}.cls-25,.cls-29,.cls-39{stroke-width:2px;}.cls-26{fill:#f77900;}.cls-27{fill:#ff134a;}.cls-28{fill:#29255b;}.cls-29{stroke:#fff;}.cls-30{fill:#c71439;opacity:0.57;}.cls-30,.cls-38,.cls-39,.cls-40,.cls-41,.cls-42,.cls-43,.cls-44,.cls-45,.cls-46,.cls-47{isolation:isolate;}.cls-31{fill:#60321b;}.cls-32{fill:#812e0f;}.cls-33{fill:#ffa400;}.cls-34{fill:#0d7300;}.cls-35{fill:#d88000;}.cls-36{fill:#f7a800;}.cls-37{fill:#4d4900;}.cls-38,.cls-39{font-size:80px;font-family:FranklinGothic-Medium, Franklin Gothic Medium;font-weight:500;}.cls-38{fill:#ffd300;}.cls-39,.cls-43,.cls-45,.cls-47{stroke:#000;}.cls-40{font-size:18px;font-family:ComicSansMS, Comic Sans MS;}.cls-42,.cls-43,.cls-44,.cls-45{font-size:36px;}.cls-42,.cls-44,.cls-46{fill:#fc0;}.cls-42,.cls-43,.cls-44,.cls-45,.cls-46,.cls-47{font-family:Impact;}.cls-43,.cls-45,.cls-47{stroke-width:1.5px;}.cls-44,.cls-45{letter-spacing:-0.02em;}.cls-46,.cls-47{font-size:100px;}.cls-48{stroke:#e20d13;}.cls-49{fill:#e20d13;}</style></defs><g id="Capa_1" data-name="Capa 1"><g id="Capa_3" data-name="Capa 3"><rect class="cls-1" width="960" height="560"/><g class="cls-2"><ellipse class="cls-3" cx="481.5" cy="398" rx="363.5" ry="115"/></g></g><g id="Capa_5" data-name="Capa 5"><path class="cls-4" d="M586.6,199.82l31.53,172.05s1.6,6.88,4,7.16,6.71-5.9,7-8.73S684,211.3,684,211.3" transform="translate(0 0)"/><path class="cls-5" d="M648.7,71.32c-3.46,2.37-2.07,4.49-6.09,10.76-3.32,5.19-4.91,4.74-5.75,7.93-1.35,5.2,2.34,8.49,0,10.52-1.81,1.55-4.21-.18-8.54.9a15.63,15.63,0,0,0-11,12.09c-.49,3,.56,3.83-.67,5.66-1.94,2.89-5.69,2.43-10.17,4.54-5.42,2.56-9.22,7.6-9.87,12.23-.85,6.06,4.09,8.5,2.12,12.69-1.61,3.43-5.76,3.52-11.58,6.28-9.5,4.51-16.85,13-18.21,21.77-.26,1.68-1.64,10.56,5.23,16.88a23.85,23.85,0,0,0,9.06,4.89c20.57,6.52,50.82,6.94,77,11,21.13,3.25,30,7.39,41.79,3,2.85-1.06,12.09-3.86,14.51-10.72,2.53-7.16-2.7-17.4-10.73-21.35-2.17-1.07-5.78-2.29-5.61-3.53s3.21-.78,5.08-2.27c3.54-2.81,1.6-11.1-4-16.74-5.07-5.06-10.65-5.51-11-8.94-.27-2.76,3.28-3,4.46-7.13s-1.09-9.16-4.61-12a19,19,0,0,0-5.07-2.87c-2.53-.87-3.33-.44-4.1-1.08-2.47-2,4.76-7.31,2.63-12.12-1.77-4-8.22-3.57-9.91-7.87-1.34-3.39,2.27-4.73,1-8.49-.9-2.66-3-2.94-8.73-7.72-5.33-4.48-8-6.73-8.5-9.61-.89-5.19,5.31-8.16,3.6-10.1C659.39,68.16,652.73,68.55,648.7,71.32Z" transform="translate(0 0)"/><path class="cls-6" d="M619.43,135.78c-1.17.77,3.9,11.51,15.93,18.13,9.4,5.18,28.71,11,38.42,11.22,1.12,0,4.16,0,5.83,1.64,2,1.94-.05,4.18,1.71,5.94s5.07.37,11.88,1.4c6.59,1,8,3.07,10.57,2.2,3.57-1.2,4.39-6.41,3.6-10.09-1.53-7.1-9.64-11.27-10.65-11.78-7.44-3.71-11.8-1.5-29.81-2.55-11.46-.67-18.86-1.11-27.21-4.16C626.55,142.92,620.51,135.08,619.43,135.78Z" transform="translate(0 0)"/><path class="cls-6" d="M639.84,105.66c-1.46.79.63,6.75,6,10.27,3.62,2.37,10.15,4.59,13,2.49,3.37-2.54-.73-9.77-1.27-9.72s1.39,4.69-.66,5.66C653.28,116.08,642.14,104.41,639.84,105.66Z" transform="translate(0 0)"/><path class="cls-6" d="M632.72,135.43c-.1.24,6.5,2.27,12.73,4.37,12.5,4.21,16.16,6.24,23.31,6.57,3.59.17,8.36.39,9.84-1.71,2.07-2.95-2.91-9.73-8.39-10.55-4.15-.63-5.56,2.6-11.36,4.4C647.08,142.16,632.87,135.06,632.72,135.43Z" transform="translate(0 0)"/><path class="cls-6" d="M645,174.18c-9.22-1.61-12.58-4-28.81-11-10.74-4.65-22.27-9.23-21.57-11.15.22-.58,1.4-.44,2.6-1.61,2-1.88.84-4.14,1.75-4.57,1.87-.9,10,7.27,13.25,10.16,17.81,16.06,46.4,17,46,18.8C658,175.64,651.14,175.25,645,174.18Z" transform="translate(0 0)"/><path class="cls-7" d="M592.1,204.3a104.2,104.2,0,0,0,26.06,24.11C638,241.47,658.34,246,668.87,247.77" transform="translate(0 0)"/><path class="cls-8" d="M593.54,227.9c1.8,4.46,8.54,19.32,27.77,30a84.71,84.71,0,0,0,38.53,10.27" transform="translate(0 0)"/><path class="cls-9" d="M602.38,265.28a79.69,79.69,0,0,0,17.56,14.5,97.48,97.48,0,0,0,33.45,12.55" transform="translate(0 0)"/><path class="cls-10" d="M603,291.17a56.16,56.16,0,0,0,19.82,15.73,69.49,69.49,0,0,0,22.12,6.43" transform="translate(0 0)"/><path class="cls-11" d="M645.53,335a30.41,30.41,0,0,0,15,10.58,40.78,40.78,0,0,0,16.88,1.92" transform="translate(0 0)"/><path class="cls-12" d="M629.46,209.17a149.91,149.91,0,0,1-15.18,16.39,164.08,164.08,0,0,1-19.92,15.82" transform="translate(0 0)"/><path class="cls-13" d="M653.66,208.19a156.7,156.7,0,0,1-13.47,22.33c-5.54,7.67-9.5,13.15-16.69,19.08a87.57,87.57,0,0,1-23.27,13.52" transform="translate(0 0)"/><path class="cls-14" d="M677.71,218.68a222,222,0,0,1-18,22.24,263.35,263.35,0,0,1-56.82,45.94" transform="translate(0 0)"/><path class="cls-15" d="M664.92,266A114.88,114.88,0,0,1,647,284.89a139.43,139.43,0,0,1-37.56,22.36" transform="translate(0 0)"/><path class="cls-16" d="M650.2,309.17a57,57,0,0,1-17.44,15.16,73.24,73.24,0,0,1-21.41,8" transform="translate(0 0)"/><path class="cls-12" d="M681,347.31c-1.63,3.91-4.8,9.33-11.31,12-6.84,2.86-13.79,1.21-14.22,2.7s7.26,4.69,14.7,5.84a47.15,47.15,0,0,0,7.22.55" transform="translate(0 0)"/><path class="cls-17" d="M665.48,201.53l-28,172.66s-.8,7,1.34,8.08,8.31-3.31,9.57-5.86S753.39,245,753.39,245" transform="translate(0 0)"/><path class="cls-18" d="M767.07,101.29c-4.05,1.07-3.46,3.54-9.34,8.1-4.88,3.77-6.23,2.81-8.08,5.54-3,4.45-.65,8.78-3.56,9.9-2.23.85-3.91-1.58-8.35-2a15.66,15.66,0,0,0-14.47,7.68c-1.44,2.62-.75,3.8-2.52,5.11-2.8,2.07-6.17.38-11.11.87-6,.59-11.23,4.07-13.39,8.21-2.84,5.42,1,9.38-2.26,12.66-2.67,2.69-6.61,1.39-13,2-10.46,1.06-20.23,6.58-24.46,14.4-.81,1.5-5.08,9.4-.72,17.66a23.68,23.68,0,0,0,6.89,7.64c17.2,13,45.55,23.58,68.85,36.16,18.82,10.15,25.81,17,38.36,16.84,3.05,0,12.69.42,17.27-5.24,4.78-5.89,3.29-17.29-2.95-23.71-1.69-1.73-4.68-4.09-4.1-5.2s3.28.33,5.55-.44c4.28-1.46,5.22-9.92,1.8-17.12-3.08-6.47-8.19-8.76-7.36-12.12.67-2.69,4.08-1.69,6.59-5.22s2-9-.31-12.87a18.68,18.68,0,0,0-3.82-4.4c-2.09-1.67-3-1.53-3.5-2.39-1.64-2.76,6.93-5.29,6.55-10.54-.33-4.38-6.55-6.11-6.71-10.73-.12-3.65,3.73-3.71,3.79-7.67,0-2.81-1.87-3.79-5.63-10.2-3.52-6-5.28-9-4.79-11.9.9-5.19,7.74-5.91,6.78-8.31C778.19,101.9,771.79,100,767.07,101.29Z" transform="translate(0 0)"/><path class="cls-19" d="M717.88,152.21c-1.36.32-.19,12.15,8.93,22.42,7.11,8,23.37,20,32.43,23.45,1,.41,3.9,1.43,4.94,3.5,1.25,2.5-1.45,3.93-.38,6.17s4.65,2.05,10.72,5.3c5.87,3.16,6.52,5.58,9.23,5.62,3.76.07,6.28-4.57,6.77-8.3.94-7.2-5.3-13.85-6.09-14.67-5.76-6-10.61-5.36-27.22-12.4-10.58-4.47-17.4-7.36-24.24-13C722.19,161.32,719.13,151.91,717.88,152.21Z" transform="translate(0 0)"/><path class="cls-19" d="M747.2,130.67c-1.63.26-1.67,6.57,2.22,11.7,2.61,3.44,8,7.72,11.38,6.68,4-1.25,2.58-9.44,2.06-9.57s-.26,4.87-2.52,5.11C756.37,145,749.79,130.27,747.2,130.67Z" transform="translate(0 0)"/><path class="cls-19" d="M730.51,156.33c-.17.2,5.37,4.32,10.54,8.39,10.36,8.16,13.13,11.29,19.75,14,3.32,1.36,7.75,3.17,9.84,1.69,2.94-2.09.52-10.14-4.36-12.76-3.7-2-6.11.59-12.18.34C741.79,167.49,730.78,156,730.51,156.33Z" transform="translate(0 0)"/><path class="cls-19" d="M729.11,197c-8.14-4.6-10.51-8-23.44-20.06-8.56-8-17.89-16.16-16.58-17.73.4-.48,1.46,0,3-.65,2.46-1.12,2.18-3.62,3.17-3.72,2.07-.22,7,10.22,9.08,14,11.4,21.1,38,31.6,37,33.12C740.83,202.69,734.52,200,729.11,197Z" transform="translate(0 0)"/><path class="cls-20" d="M669.15,207.59A104.45,104.45,0,0,0,685.62,239c14.35,19,32,30.08,41.28,35.25" transform="translate(0 0)"/><path class="cls-20" d="M662.59,230.31c.21,4.8,1.58,21.06,16.09,37.62a84.69,84.69,0,0,0,32.86,22.6" transform="translate(0 0)"/><path class="cls-21" d="M658.39,268.5a80.22,80.22,0,0,0,11.68,19.55,97.56,97.56,0,0,0,27.31,23" transform="translate(0 0)"/><path class="cls-22" d="M650.24,293.08a56.23,56.23,0,0,0,13.41,21.46A69,69,0,0,0,682.33,328" transform="translate(0 0)"/><path class="cls-23" d="M683.13,330.54a30.61,30.61,0,0,0,10.55,15A40.87,40.87,0,0,0,708.94,353" transform="translate(0 0)"/><path class="cls-20" d="M702.72,224.71a149,149,0,0,1-19.8,10.35,164.72,164.72,0,0,1-24.08,8.23" transform="translate(0 0)"/><path class="cls-20" d="M725.84,231.91a156.52,156.52,0,0,1-20.17,16.51c-7.8,5.37-13.36,9.2-22.13,12.38a87.41,87.41,0,0,1-26.45,4.93" transform="translate(0 0)"/><path class="cls-20" d="M745,249.85a221.66,221.66,0,0,1-24.46,14.9A262.18,262.18,0,0,1,651.61,289" transform="translate(0 0)"/><path class="cls-21" d="M717.09,290.1a114.77,114.77,0,0,1-23.2,11.84A139.16,139.16,0,0,1,651,310.41" transform="translate(0 0)"/><path class="cls-23" d="M688.73,325.88a57,57,0,0,1-21.52,8.43,73,73,0,0,1-22.85.36" transform="translate(0 0)"/><path class="cls-24" d="M712.38,354c-2.85,3.13-7.66,7.18-14.69,7.56-7.41.39-13.4-3.49-14.31-2.23s5.27,6.85,11.89,10.43a47.13,47.13,0,0,0,6.62,2.94" transform="translate(0 0)"/><rect class="cls-25" x="371.78" y="165.8" width="9.47" height="65.47"/><rect class="cls-25" x="413.2" y="140.4" width="7.1" height="79.58"/><rect class="cls-25" x="390.12" y="126.85" width="7.69" height="107.23"/><rect class="cls-25" x="348.12" y="137.01" width="9.47" height="97.07"/><rect class="cls-25" x="361.72" y="152.25" width="7.1" height="79.01"/><rect class="cls-25" x="330.37" y="149.43" width="11.24" height="74.5"/><rect class="cls-25" x="355.22" y="154.51" width="9.47" height="65.47"/><rect class="cls-25" x="396.63" y="129.11" width="7.1" height="79.58"/><rect class="cls-25" x="373.56" y="115.56" width="7.69" height="107.23"/><rect class="cls-25" x="331.55" y="125.72" width="9.47" height="97.07"/><rect class="cls-25" x="345.16" y="140.96" width="7.1" height="79.01"/><rect class="cls-25" x="313.8" y="138.14" width="11.24" height="74.5"/><rect class="cls-25" x="347.52" y="169.18" width="9.47" height="65.47"/><rect class="cls-25" x="388.94" y="143.78" width="7.1" height="79.58"/><rect class="cls-25" x="365.87" y="130.24" width="7.69" height="107.23"/><rect class="cls-25" x="323.86" y="140.4" width="9.47" height="97.07"/><rect class="cls-25" x="337.47" y="155.64" width="7.1" height="79.01"/><rect class="cls-25" x="306.11" y="152.81" width="11.24" height="74.5"/><rect class="cls-25" x="419.12" y="154.51" width="9.47" height="65.47"/><rect class="cls-25" x="426.81" y="151.12" width="7.1" height="79.58"/><rect class="cls-25" x="403.73" y="137.58" width="7.69" height="107.23"/><rect class="cls-25" x="394.27" y="147.73" width="9.47" height="97.07"/><rect class="cls-25" x="380.66" y="147.73" width="7.1" height="79.01"/><rect class="cls-25" x="343.97" y="160.15" width="11.24" height="74.5"/><path class="cls-26" d="M298.23,184.6l16,150.69s11.24-6.21,14.79-6.21,34.32.57,40.23,3.39,23.08,5.64,27.81,11.29,26,1.12,26,1.12L440.23,192.5s-13.61-4.52-17.75,0-12.42,14.11-20.11,17.5-33.14,10.72-35.5,10.72c-3.6,0-30.18-5.08-36.1-7.34-6.26-2.39-16.56-12.41-20.11-18.62s-3-10.16-3-10.16S299.42,182.34,298.23,184.6Z" transform="translate(0 0)"/><rect class="cls-27" x="556.87" y="39" width="8.49" height="297.82"/><path class="cls-28" d="M498.18,147.78l18.53,202.41s27,9.81,40.93,9.81,47.88-5.35,48.65-8,18.53-204.2,18.53-204.2l-69.5,5.35C543.74,154,498.18,147.78,498.18,147.78Z" transform="translate(0 0)"/><path class="cls-29" d="M502,190.58a165.7,165.7,0,0,0,52.51,9.81c28.58.61,51.65-2.89,66.41-8.92" transform="translate(0 0)"/><path class="cls-29" d="M503.58,206.63c10.11,5.94,31.54,13.9,57.92,14.27,28.09.39,47.71-8.27,57.92-14.27" transform="translate(0 0)"/><path class="cls-29" d="M512.08,299.37a125.8,125.8,0,0,0,43.3,8.91c23.57.55,42.59-2.62,54.77-8.1" transform="translate(0 0)"/><path class="cls-29" d="M513.35,314c8.33,5.4,26,12.63,47.76,13,23.17.36,39.35-7.51,47.77-13" transform="translate(0 0)"/><path class="cls-30" d="M492,143.32a272.57,272.57,0,0,0,64.09,9.81,272.76,272.76,0,0,0,74.91-8V130s-44,8.92-50.19,9.81S496.63,130,494.32,130,492,143.32,492,143.32Z" transform="translate(0 0)"/><path class="cls-30" d="M495.09,130c-4.24-1,4.26-10.61,7.72-17.83a71,71,0,0,1,22.4-26.75,62.72,62.72,0,0,1,22.39-9.81,49.1,49.1,0,0,1,17.76-1.79c4.88.48,8.3,1.64,13.9,3.57,8.77,3,14,4.82,20.08,8.92,10.53,7,16.43,16,19.3,20.51,3.79,5.89,11.83,18.39,8.5,24.07-2.15,3.66-8.13,2.29-10.81,2.68-18.54,2.67-15.45,7.13-48.65,6.24-31.69-.85-39.39-4.46-57.92-7.14C505.93,132.07,499,130.84,495.09,130Z" transform="translate(0 0)"/><rect class="cls-27" x="458.28" y="35.34" width="8.49" height="297.82"/><path class="cls-28" d="M399.59,144.12l18.54,202.41s27,9.81,40.92,9.81,47.88-5.35,48.65-8,18.54-204.19,18.54-204.19l-69.5,5.35C445.15,150.36,399.59,144.12,399.59,144.12Z" transform="translate(0 0)"/><path class="cls-29" d="M403.45,186.92A165.67,165.67,0,0,0,456,196.73c28.58.61,51.65-2.89,66.42-8.92" transform="translate(0 0)"/><path class="cls-29" d="M405,203c10.1,5.94,31.54,13.9,57.91,14.27,28.1.39,47.71-8.27,57.92-14.27" transform="translate(0 0)"/><path class="cls-29" d="M413.49,295.71a125.91,125.91,0,0,0,43.31,8.91c23.57.55,42.59-2.63,54.76-8.1" transform="translate(0 0)"/><path class="cls-30" d="M393.41,143.66a273.17,273.17,0,0,0,64.1,9.81,272.68,272.68,0,0,0,74.9-8V130.29s-44,8.92-50.19,9.81-84.17-9.81-86.49-9.81S393.41,143.66,393.41,143.66Z" transform="translate(0 0)"/><path class="cls-30" d="M396.5,130.29c-4.24-1,4.26-10.61,7.73-17.83a70.86,70.86,0,0,1,22.39-26.75A62.85,62.85,0,0,1,449,75.9a49.16,49.16,0,0,1,17.77-1.79c4.87.48,8.29,1.64,13.9,3.57,8.76,3,13.95,4.82,20.07,8.92,10.54,7.05,16.43,16,19.31,20.51,3.78,5.89,11.82,18.39,8.49,24.07-2.14,3.66-8.13,2.29-10.81,2.68-18.53,2.67-15.44,7.13-48.65,6.24-31.69-.85-39.38-4.46-57.91-7.14C407.34,132.41,400.36,131.18,396.5,130.29Z" transform="translate(0 0)"/><path class="cls-31" d="M507.06,378c-1.18,1.65-1.4,6.17-1.54,9a44.69,44.69,0,0,0,1,10.94c1.88,7.92,37.29,31.91,101.72,35.32,56.21,3,74.64-4.55,119.62-24.38,1.7-.74,6.57-1.49,8.18-5,1-2.2,0-3.71-.51-10.94-.37-5.19.06-5.75-.51-6.47-3.63-4.6-27.78,10.14-36.3,12.44-42.58,11.45-93.61,9.42-108.88,6C548.76,395.56,512.07,371,507.06,378Z" transform="translate(0 0)"/><path class="cls-32" d="M508.34,427.26c4.61-4.65,24.32,5.78,40.9,12,41.5,15.66,93.43,16.49,131.88,5.79,23.77-6.61,46.08-18.65,50.1-13.82,1.92,2.32-.93,7.81-3.58,12.93a45,45,0,0,1-9.2,12c-11.23,10.5-27.07,15.09-32.21,16.5-30.89,8.5-60.57,8.41-73.61,8-16.52-.49-40.17-2.45-63.78-10.13-5.23-1.7-19.27-6.55-29.76-17.07A40.2,40.2,0,0,1,510.9,442C509.16,438.19,505.47,430.15,508.34,427.26Z" transform="translate(0 0)"/><path class="cls-31" d="M505.79,408.08c-1.19,1.48-1.4,5.53-1.54,8a36.4,36.4,0,0,0,1,9.81c1.88,7.1,37.3,28.61,101.73,31.66,56.21,2.66,74.63-4.08,119.62-21.85,1.7-.67,6.57-1.34,8.18-4.46,1-2,0-3.32-.51-9.81-.37-4.64.05-5.15-.52-5.8-3.62-4.12-27.77,9.1-36.29,11.15-42.58,10.27-93.61,8.45-108.88,5.35C547.49,423.83,510.8,401.79,505.79,408.08Z" transform="translate(0 0)"/><path class="cls-33" d="M505.92,404.29c0,8.36,4.27,27.4,8.62,28.27,3.87.77.55-17.28,7.76-14.58,16.39,6.16,48.08,13.14,72,14.93,63.85,4.76,130-2.7,138.8-20.81.48-1,2.1-4.32.52-5.8-4-3.76-22.77,10.39-41.42,12.78-32.62,4.2-55.92,7-93,3.27C549,417.26,529.42,407,521.33,407,518.64,407,505.49,402.47,505.92,404.29Z" transform="translate(0 0)"/><path class="cls-34" d="M735,374.22c0,6.28-18.89,23.26-52.33,35.24C666,415.43,642,419,620,419c-5.5,0-27.75-4.13-48.27-10.6-33.4-10.52-70.84-29.55-70.84-34.18,0-8.57,19,.5,48.83,8.15,22.41,5.75,48.33,15.75,68.24,15.81,31,.09,59.5-8.06,64.75-9.06C718.2,382.37,735,364.94,735,374.22Z" transform="translate(0 0)"/><path class="cls-32" d="M521.51,313.9a67.23,67.23,0,0,0-15.34,14.15c-1.1,1.45-18.47,25-9.71,43.82,8.24,17.69,35.29,22,63.39,26.47,13.47,2.15,31.13,2,66.45,1.83,38.52-.23,50.19-1.54,62.37-4.11,19.17-4,38.34-8.35,46.51-22.82,5.42-9.59,3.66-19.48,3.07-22.82-2.91-16.38-15.81-26.74-22.49-31.95-43.66-34.09-116-25.28-143.64-21.91C558.43,298.22,539.16,301.67,521.51,313.9Z" transform="translate(0 0)"/><path class="cls-31" d="M284.88,374.75c-1.14,1.66-1.34,6.18-1.47,9a46.71,46.71,0,0,0,1,11c1.8,8,35.75,32,97.52,35.44,53.89,3,71.56-4.57,114.69-24.46,1.62-.75,6.3-1.49,7.84-5,1-2.21,0-3.72-.49-11-.36-5.2,0-5.76-.49-6.49-3.48-4.62-26.63,10.18-34.8,12.48-40.83,11.49-89.75,9.45-104.39,6C324.86,392.37,289.68,367.71,284.88,374.75Z" transform="translate(0 0)"/><path class="cls-35" d="M288.91,425.71c4.42-4.66,23.32,5.8,39.21,12.08,39.79,15.71,89.58,16.55,126.44,5.82,22.8-6.64,44.18-18.72,48-13.87,1.85,2.32-.88,7.83-3.43,13a44.65,44.65,0,0,1-8.82,12.08c-10.76,10.54-25.95,15.14-30.87,16.55-29.62,8.53-58.08,8.44-70.58,8.06-15.84-.49-38.51-2.46-61.15-10.17-5-1.7-18.48-6.57-28.53-17.12a40.53,40.53,0,0,1-7.85-11.64C289.7,436.68,286.16,428.61,288.91,425.71Z" transform="translate(0 0)"/><path class="cls-31" d="M286.46,406.47c-1.13,1.49-1.34,5.55-1.47,8.06a37.87,37.87,0,0,0,1,9.84c1.81,7.12,35.76,28.7,97.53,31.76,53.89,2.68,71.55-4.09,114.68-21.92,1.63-.67,6.31-1.34,7.84-4.47,1-2,0-3.34-.49-9.85-.35-4.66.06-5.16-.49-5.81-3.47-4.14-26.63,9.12-34.79,11.18-40.83,10.3-89.75,8.48-104.39,5.37C326.45,422.27,291.27,400.16,286.46,406.47Z" transform="translate(0 0)"/><path class="cls-33" d="M286.59,402.67c0,8.38,4.1,27.49,8.27,28.36,3.71.77.53-17.34,7.44-14.63,15.71,6.18,46.09,13.19,69,15,61.21,4.78,124.63-2.71,133.07-20.88.46-1,2-4.33.5-5.82-3.86-3.77-21.83,10.42-39.72,12.83-31.27,4.21-53.61,7-89.11,3.28-48.21-5.11-66.94-15.43-74.69-15.43C298.79,405.36,286.18,400.84,286.59,402.67Z" transform="translate(0 0)"/><path class="cls-34" d="M506.21,377.64c0,4.71-18.11,17.46-50.18,26.46-16,4.48-39,7.16-60.12,7.16-5.27,0-26.59-3.09-46.27-7.95-32-7.9-67.92-22.19-67.92-25.67,0-6.44,18.24.38,46.82,6.12,21.48,4.32,46.33,11.82,65.42,11.87,29.72.07,57-6.05,62.07-6.8C490.11,383.76,506.21,370.67,506.21,377.64Z" transform="translate(0 0)"/><path class="cls-29" d="M415.13,308.4c8.33,5.39,26,12.63,47.76,13,23.17.36,39.34-7.51,47.77-13" transform="translate(0 0)"/><rect class="cls-25" x="291.44" y="194.78" width="9.47" height="65.47"/><rect class="cls-25" x="332.86" y="169.38" width="7.1" height="79.58"/><rect class="cls-25" x="309.78" y="155.83" width="7.69" height="107.23"/><rect class="cls-25" x="267.78" y="165.99" width="9.47" height="97.07"/><rect class="cls-25" x="281.38" y="181.23" width="7.1" height="79.01"/><rect class="cls-25" x="250.03" y="178.41" width="11.24" height="74.5"/><rect class="cls-25" x="274.88" y="183.49" width="9.47" height="65.47"/><rect class="cls-25" x="316.29" y="158.09" width="7.1" height="79.58"/><rect class="cls-25" x="293.22" y="144.55" width="7.69" height="107.23"/><rect class="cls-25" x="251.21" y="154.71" width="9.47" height="97.07"/><rect class="cls-25" x="264.82" y="169.94" width="7.1" height="79.01"/><rect class="cls-25" x="233.46" y="167.12" width="11.24" height="74.5"/><rect class="cls-25" x="267.18" y="198.16" width="9.47" height="65.47"/><rect class="cls-25" x="308.6" y="172.77" width="7.1" height="79.58"/><rect class="cls-25" x="285.53" y="159.22" width="7.69" height="107.23"/><rect class="cls-25" x="243.52" y="169.38" width="9.47" height="97.07"/><rect class="cls-25" x="257.13" y="184.62" width="7.1" height="79.01"/><rect class="cls-25" x="225.77" y="181.8" width="11.24" height="74.5"/><rect class="cls-25" x="338.78" y="183.49" width="9.47" height="65.47"/><rect class="cls-25" x="346.47" y="180.1" width="7.1" height="79.58"/><rect class="cls-25" x="323.39" y="166.56" width="7.69" height="107.23"/><rect class="cls-25" x="313.93" y="176.72" width="9.47" height="97.07"/><rect class="cls-25" x="300.32" y="176.72" width="7.1" height="79.01"/><rect class="cls-25" x="263.63" y="189.13" width="11.24" height="74.5"/><path class="cls-36" d="M217.89,213.58l16,150.69s11.24-6.21,14.79-6.21,34.32.57,40.23,3.39,23.08,5.64,27.81,11.29,26,1.13,26,1.13l17.16-152.39s-13.61-4.51-17.75,0S329.72,235.59,322,239s-33.14,10.72-35.5,10.72c-3.6,0-30.18-5.08-36.1-7.34-6.26-2.39-16.56-12.41-20.11-18.62s-3-10.16-3-10.16S219.08,211.32,217.89,213.58Z" transform="translate(0 0)"/><path class="cls-35" d="M305.37,309a65.81,65.81,0,0,0-14.7,14.2c-1.05,1.45-17.71,25.08-9.31,44,7.89,17.75,33.83,22.07,60.77,26.56,12.92,2.15,29.85,2.05,63.71,1.83,36.93-.23,48.12-1.54,59.79-4.12,18.38-4.06,36.76-8.38,44.6-22.9,5.19-9.62,3.51-19.54,2.94-22.89-2.79-16.43-15.15-26.83-21.56-32.06-41.86-34.19-111.24-25.36-137.72-22C340.77,293.24,322.3,296.7,305.37,309Z" transform="translate(0 0)"/><path class="cls-37" d="M372.18,311.5a1.5,1.5,0,1,0-1.5-1.5A1.5,1.5,0,0,0,372.18,311.5Z" transform="translate(0 0)"/><path class="cls-37" d="M423.29,318.25a1.5,1.5,0,1,0-1.5-1.5A1.5,1.5,0,0,0,423.29,318.25Z" transform="translate(0 0)"/><path class="cls-37" d="M394.36,355.86a1.5,1.5,0,1,0-1.5-1.5A1.5,1.5,0,0,0,394.36,355.86Z" transform="translate(0 0)"/><path class="cls-37" d="M330.71,343.32a1.5,1.5,0,1,0-1.5-1.5A1.5,1.5,0,0,0,330.71,343.32Z" transform="translate(0 0)"/><path class="cls-37" d="M335.54,309.57a1.5,1.5,0,1,0-1.5-1.5A1.5,1.5,0,0,0,335.54,309.57Z" transform="translate(0 0)"/><path class="cls-37" d="M299.86,338.5a1.5,1.5,0,1,0-1.5-1.5A1.5,1.5,0,0,0,299.86,338.5Z" transform="translate(0 0)"/><path class="cls-37" d="M369.29,335.61a1.5,1.5,0,1,0-1.5-1.5A1.5,1.5,0,0,0,369.29,335.61Z" transform="translate(0 0)"/><path class="cls-37" d="M405.39,298.43v1a1.29,1.29,0,0,0,.13.58,1.36,1.36,0,0,0,.79.79,1.08,1.08,0,0,0,.58.13l.4-.05a1.44,1.44,0,0,0,.66-.39l.24-.3a1.54,1.54,0,0,0,.2-.76v-1a1.08,1.08,0,0,0-.13-.58,1.4,1.4,0,0,0-.79-.79,1.08,1.08,0,0,0-.58-.13l-.4.05a1.44,1.44,0,0,0-.66.39l-.23.3A1.45,1.45,0,0,0,405.39,298.43Z" transform="translate(0 0)"/><path class="cls-37" d="M438.71,366.46a1.5,1.5,0,0,0,0-3h0a1.5,1.5,0,0,0,0,3Z" transform="translate(0 0)"/><path class="cls-37" d="M471.5,333.68a1.5,1.5,0,1,0-1.5-1.5A1.5,1.5,0,0,0,471.5,333.68Z" transform="translate(0 0)"/><path class="cls-37" d="M458,305.71a1.5,1.5,0,1,0-1.5-1.5A1.5,1.5,0,0,0,458,305.71Z" transform="translate(0 0)"/><path class="cls-37" d="M441.61,340.43a1.5,1.5,0,1,0-1.5-1.5,1.5,1.5,0,0,0,1.5,1.5Z" transform="translate(0 0)"/><path class="cls-37" d="M394.36,322.11a1.5,1.5,0,1,0-1.5-1.5A1.5,1.5,0,0,0,394.36,322.11Z" transform="translate(0 0)"/><path class="cls-37" d="M354.82,357.79a1.5,1.5,0,1,0-1.5-1.5A1.5,1.5,0,0,0,354.82,357.79Z" transform="translate(0 0)"/><path d="M543.82,328.86a1.5,1.5,0,1,0-1.5-1.5A1.5,1.5,0,0,0,543.82,328.86Z" transform="translate(0 0)"/><path d="M594,318.25a1.5,1.5,0,1,0-1.5-1.5A1.5,1.5,0,0,0,594,318.25Z" transform="translate(0 0)"/><path d="M569.86,354.89a1.5,1.5,0,1,0-1.5-1.5A1.5,1.5,0,0,0,569.86,354.89Z" transform="translate(0 0)"/><path d="M648,319.21a1.5,1.5,0,1,0-1.5-1.5A1.5,1.5,0,0,0,648,319.21Z" transform="translate(0 0)"/><path d="M631.57,348.14a1.5,1.5,0,1,0-1.5-1.5A1.5,1.5,0,0,0,631.57,348.14Z" transform="translate(0 0)"/><path d="M604.57,335.61a1.5,1.5,0,1,0-1.5-1.5A1.5,1.5,0,0,0,604.57,335.61Z" transform="translate(0 0)"/><path d="M607.46,368.39a1.5,1.5,0,1,0-1.5-1.5A1.5,1.5,0,0,0,607.46,368.39Z" transform="translate(0 0)"/><path d="M678.82,357.79a1.5,1.5,0,1,0-1.5-1.5A1.5,1.5,0,0,0,678.82,357.79Z" transform="translate(0 0)"/><path d="M692.32,326.93a1.5,1.5,0,1,0-1.5-1.5A1.5,1.5,0,0,0,692.32,326.93Z" transform="translate(0 0)"/><path d="M673,335.61a1.5,1.5,0,1,0-1.5-1.5A1.5,1.5,0,0,0,673,335.61Z" transform="translate(0 0)"/><path d="M619,303.79a1.5,1.5,0,1,0-1.5-1.5A1.5,1.5,0,0,0,619,303.79Z" transform="translate(0 0)"/><path d="M562.14,308.61a1.5,1.5,0,1,0-1.5-1.5A1.5,1.5,0,0,0,562.14,308.61Z" transform="translate(0 0)"/><path d="M525.5,356.82a1.5,1.5,0,1,0-1.5-1.5A1.5,1.5,0,0,0,525.5,356.82Z" transform="translate(0 0)"/><path d="M671.11,378a1.5,1.5,0,1,0-1.5-1.5A1.5,1.5,0,0,0,671.11,378Z" transform="translate(0 0)"/><path d="M720.29,357.79a1.5,1.5,0,1,0-1.5-1.5A1.5,1.5,0,0,0,720.29,357.79Z" transform="translate(0 0)"/><path d="M544.79,372.25a1.5,1.5,0,1,0-1.5-1.5A1.5,1.5,0,0,0,544.79,372.25Z" transform="translate(0 0)"/><path d="M573.71,328.86a1.5,1.5,0,1,0-1.5-1.5A1.5,1.5,0,0,0,573.71,328.86Z" transform="translate(0 0)"/><path d="M579.5,379a1.5,1.5,0,1,0-1.5-1.5A1.5,1.5,0,0,0,579.5,379Z" transform="translate(0 0)"/><path d="M645.07,381.89a1.5,1.5,0,1,0-1.5-1.5A1.5,1.5,0,0,0,645.07,381.89Z" transform="translate(0 0)"/><path d="M676.89,309.57a1.5,1.5,0,1,0-1.5-1.5A1.5,1.5,0,0,0,676.89,309.57Z" transform="translate(0 0)"/><path d="M656.64,345.25a1.5,1.5,0,1,0-1.5-1.5A1.5,1.5,0,0,0,656.64,345.25Z" transform="translate(0 0)"/><path d="M620,326.93a1.5,1.5,0,1,0-1.5-1.5A1.5,1.5,0,0,0,620,326.93Z" transform="translate(0 0)"/></g><g id="Capa_4" data-name="Capa 4"><text class="cls-38" transform="translate(32 90)">Combo KND</text><text class="cls-39" transform="translate(32 90)">Combo KND</text><text class="cls-40" transform="translate(125.46 540.79)">Combo KND, incluye 2 hamburguesas, 2 bebidad grandes, 2 helado y papas incluidas.</text><g class="cls-41"><text class="cls-42" transform="translate(32.39 154.14)">Solo ho</text><text class="cls-43" transform="translate(32.39 154.14)">Solo ho</text><text class="cls-44" transform="translate(141.29 154.14)">y</text><text class="cls-45" transform="translate(141.29 154.14)">y</text><text class="cls-42" transform="translate(156.77 154.14)">, no te pierdad </text><text class="cls-43" transform="translate(156.77 154.14)">, no te pierdad </text><text class="cls-42" transform="translate(32.39 197.34)"><tspan xml:space="preserve">esta promocion  !!!</tspan></text><text class="cls-43" transform="translate(32.39 197.34)"><tspan xml:space="preserve">esta promocion  !!!</tspan></text></g><text class="cls-46" transform="translate(676.71 446.14)">$ 235</text><text class="cls-47" transform="translate(676.71 446.14)">$ 235</text></g></g><g id="Capa_2" data-name="Capa 2"><g id="Capa_2-2" data-name="Capa 2"><path class="cls-48" d="M19.28,439.33s8.93-9.63,10.5-13.84,8.67-22.05,8.15-24.46,33.36-6.83,33.36-6.83v19.26" transform="translate(0 0)"/><path class="cls-49" d="M16.91,409.94l3.68,4.15S91,403.4,94.15,401.62,18.49,412.31,16.91,409.94Z" transform="translate(0 0)"/><path class="cls-49" d="M110.06,388.5C114,386.09,16.79,403,14.85,399.74l4.53,5.62" transform="translate(0 0)"/></g><g id="Capa_3-2" data-name="Capa 3"><path class="cls-49" d="M56.52,427.62q6,.27,12,.76l3,.27a28.06,28.06,0,0,1,2.88.28c.7.14,1.52.73,1.13,1.47-.22.44-.84.58-1.31.64-1,.13-2.1.1-3.14.15l-3.38.15a.53.53,0,1,0,0,1.06l3.38-.15c1.06-.05,2.14,0,3.2-.16a3.37,3.37,0,0,0,1.93-.73,1.82,1.82,0,0,0,.42-2,2.62,2.62,0,0,0-2.16-1.45c-1.08-.17-2.2-.23-3.3-.33-2.28-.2-4.57-.39-6.86-.54q-3.9-.27-7.81-.45a.53.53,0,1,0,0,1.06Z" transform="translate(0 0)"/><path class="cls-49" d="M74.27,429c2.54.13,4.41-1.85,5.29-3.83a8.35,8.35,0,0,0-.39-7.43,11.29,11.29,0,0,0-5.78-5c-3.17-1.26-6.65-1.26-10-1.24-3.69,0-7.39.05-11.08.31a56.37,56.37,0,0,0-10.12,1.46,19.33,19.33,0,0,0-7.92,3.84C32,419,30.45,421.65,31,424.51a4.29,4.29,0,0,0,2.16,3.1,9.37,9.37,0,0,0,4.47.57L48.86,428l2.76,0a.56.56,0,0,0,.58-.53.55.55,0,0,0-.58-.53l-10.39.13c-1.67,0-3.34.06-5,.05-1.3,0-2.7-.18-3.48-1.26-1.57-2.18-.49-5.08,1.16-6.92a15.9,15.9,0,0,1,6.88-4.19,43.27,43.27,0,0,1,8.88-1.68c3.39-.35,6.81-.45,10.22-.5a60.73,60.73,0,0,1,9.73.24,12.07,12.07,0,0,1,7,3.34,8.22,8.22,0,0,1,2.47,6.46c-.19,1.94-1.31,4.34-3.41,5.14a3.48,3.48,0,0,1-1.4.2.53.53,0,1,0,0,1.06Z" transform="translate(0 0)"/><path class="cls-49" d="M34.87,428.09a.8.8,0,0,0-.59-1,.91.91,0,0,0-1,.32,2.76,2.76,0,0,0-.5,2.18A4.29,4.29,0,0,0,36,433a13.3,13.3,0,0,0,2.81.39c1.17.09,2.35.16,3.53.2,2.31.09,4.65.11,7,.08,2.68-.05,5.35-.16,8-.32.74-.05.74-1.11,0-1.06-3.82.23-7.64.35-11.47.33-1.91,0-3.82-.08-5.73-.2-1.57-.09-3.45-.05-4.82-.87a3,3,0,0,1-1.29-1.65,2.57,2.57,0,0,1-.13-.95,1.83,1.83,0,0,1,.09-.52.7.7,0,0,1,.06-.17.64.64,0,0,1,.08-.14c.12-.17,0-.28-.39-.36-.14.67,1,1,1.12.29Z" transform="translate(0 0)"/><path class="cls-49" d="M33.51,435.3a2.26,2.26,0,0,0,.05,2.39A2.91,2.91,0,0,0,36,439a18.18,18.18,0,0,0,3.52-.34l3.91-.49,8-1,3.81-.49,1.91-.24a8.31,8.31,0,0,1,1.93-.17c.6.08.86.65,1.07,1.11s.51,1.18.77,1.77l1.72,3.92a.62.62,0,0,0,.74.36.58.58,0,0,0,.23-.13A24.35,24.35,0,0,1,70.29,439c2-.87,4.47-1.42,5.44-3.49.29-.61-.71-1.16-1-.53-.93,2-3.53,2.42-5.45,3.29a25.48,25.48,0,0,0-6.53,4.32l1,.24-1.47-3.35a31,31,0,0,0-1.36-3,2.39,2.39,0,0,0-2.48-1.2c-1.24.11-2.47.31-3.7.46l-15.25,1.92c-.75.09-1.5.2-2.25.28a4.42,4.42,0,0,1-1.7,0,1.49,1.49,0,0,1-1-2.07.5.5,0,0,0-.24-.71.59.59,0,0,0-.76.18Z" transform="translate(0 0)"/><path class="cls-49" d="M33.59,442.16a7.72,7.72,0,0,0-.06,3.28.58.58,0,0,0,.56.39q9.39.38,18.8.27c6.23-.08,12.49-.26,18.7-.71a5,5,0,0,0,3.56-1.34,2.9,2.9,0,0,0,.5-3.26c-.32-.62-1.32-.08-1,.53a2,2,0,0,1-.77,2.39c-1,.69-2.39.63-3.55.71q-4.41.27-8.82.42c-5.81.22-11.63.28-17.46.21-3.32,0-6.65-.13-10-.26l.56.39a6.4,6.4,0,0,1,.06-2.72c.15-.66-1-.95-1.12-.28Z" transform="translate(0 0)"/><path class="cls-49" d="M33.92,449.09c.3,1.33-.21,2.68-.19,4A2.93,2.93,0,0,0,35.91,456a13.32,13.32,0,0,0,2.36.36c1,.11,1.93.21,2.92.29q2.88.26,5.77.35a136.53,136.53,0,0,0,22.87-1.24c1.69-.23,3.48-.64,4.61-1.91a4.1,4.1,0,0,0,.92-4.21c-.26-.63-1.38-.36-1.12.28a3.13,3.13,0,0,1-.75,3.32,6.48,6.48,0,0,1-3.89,1.49c-3.52.48-7.07.82-10.62,1a118.22,118.22,0,0,1-21.2-.53,4.83,4.83,0,0,1-2.23-.57,1.9,1.9,0,0,1-.68-1.67c0-1.41.48-2.82.15-4.24-.15-.67-1.26-.38-1.11.28Z" transform="translate(0 0)"/><path d="M93,422l-8.56,21.66-2.41,6.13c-.26.64.86.91,1.11.27l8.56-21.65,2.42-6.12c.25-.64-.87-.92-1.12-.28Z" transform="translate(0 0)"/><path d="M86.52,429.58s.2,0,.18.05,0,0,0,0,0-.33,0-.36a1.93,1.93,0,0,1,.17-.81,12.05,12.05,0,0,1,1.39-2.09,20.43,20.43,0,0,1,3.42-3.54,19.43,19.43,0,0,1,8.49-4.05,16.76,16.76,0,0,1,5.24-.2l-.42-.52a14.92,14.92,0,0,1-3.48,7.75,37.15,37.15,0,0,1-7,6.14l.82.75a13.62,13.62,0,0,1,9.3-2.9c1.3.12,2.58.77,2.62,2.1a4.61,4.61,0,0,1-.77,2.31c-.39.68-.83,1.34-1.27,2A36,36,0,0,1,91.81,448a31.6,31.6,0,0,1-9.26,3.05c-.73.12-.42,1.14.31,1a34.07,34.07,0,0,0,17-8.26,38.56,38.56,0,0,0,6.49-7.46c.91-1.37,2.13-3,2-4.68a3.35,3.35,0,0,0-2.79-2.87,11.93,11.93,0,0,0-5.6.32,15.7,15.7,0,0,0-5.5,2.74c-.58.44.25,1.17.82.75a38.08,38.08,0,0,0,7.27-6.46,15.79,15.79,0,0,0,3.56-8.16.52.52,0,0,0-.42-.51c-7.77-1-15,3.23-19.09,9.15a4.81,4.81,0,0,0-1.1,2.52c0,.77.39,1.59,1.36,1.42.73-.13.42-1.15-.31-1Z" transform="translate(0 0)"/><path d="M111.31,430.61a54,54,0,0,0-1.32,7.76c-.13,1.3-.23,2.62-.24,3.93a5.92,5.92,0,0,0,.77,3.44,2.6,2.6,0,0,0,2.75,1.2,4.92,4.92,0,0,0,2.66-1.9,11.39,11.39,0,0,0,2.09-6.4c.2-2.95,0-5.94-.09-8.9,0-.68-1.16-.69-1.16,0,.06,2.34.15,4.68.15,7a14,14,0,0,1-1.16,6.44c-.59,1.17-2.73,4-4.17,2.12a4.91,4.91,0,0,1-.67-3.18c0-1.14.1-2.29.21-3.43a52.11,52.11,0,0,1,1.31-7.82c.16-.66-1-.95-1.12-.28Z" transform="translate(0 0)"/><path d="M120.45,431.27l.55,13.37a.58.58,0,0,0,1.16,0,50.89,50.89,0,0,1,1.15-7.85,15,15,0,0,1,3.3-6.66.56.56,0,0,0-.82-.75c-3.83,4.16-4.32,10.06-4.8,15.26h1.16l-.55-13.37c0-.68-1.18-.68-1.16,0Z" transform="translate(0 0)"/><path d="M133.66,428.62c-.85-1-2.18-.08-2.75.68a14.6,14.6,0,0,0-1.75,3.31,18.17,18.17,0,0,0-1.24,7.57c.08,1.49.77,4.72,3.17,4.14a3.48,3.48,0,0,0,2.08-2.34,17.41,17.41,0,0,0,1-3.8,49.42,49.42,0,0,0,.39-9.1h-1.16a105.72,105.72,0,0,1-1.1,20.72c-.24,1.74-.49,3.48-.76,5.22a39.45,39.45,0,0,1-.82,4.82c-.33,1.16-1,2.83-2.53,3.06s-2.31-1.29-2.7-2.27a6.79,6.79,0,0,1,2.18-7.64c.58-.42-.24-1.17-.82-.75a7.77,7.77,0,0,0-2.79,7.47,5.55,5.55,0,0,0,2.12,3.68,3.17,3.17,0,0,0,3.95-.31,7.21,7.21,0,0,0,2-4.34c.32-1.82.56-3.65.83-5.48.55-3.78,1.06-7.57,1.38-11.37a87,87,0,0,0,.21-12.81c0-.67-1.16-.68-1.16,0a64.44,64.44,0,0,1-.09,6.81,23.3,23.3,0,0,1-.52,3.33,11.64,11.64,0,0,1-1,3c-.28.51-.91,1.42-1.63.91a3.29,3.29,0,0,1-1-2.09,12.14,12.14,0,0,1-.06-3.07,17.32,17.32,0,0,1,1.81-6.5,12.89,12.89,0,0,1,.92-1.55,2.06,2.06,0,0,1,.57-.57c.19-.13.28-.18.43,0,.46.54,1.27-.22.82-.75Z" transform="translate(0 0)"/><path d="M140.17,436.71a7.51,7.51,0,0,0,3.86-1.47,5.79,5.79,0,0,0,2.41-3.47,2.94,2.94,0,0,0-1.65-3.06,3.42,3.42,0,0,0-3.6.47,8.49,8.49,0,0,0-2.53,3.36,12.5,12.5,0,0,0-.73,8.21,5.72,5.72,0,0,0,2.11,3.51c2.24,1.51,6.78.66,7.22-2.17a.56.56,0,0,0-.41-.66.6.6,0,0,0-.71.38c-.29,1.92-3.23,2.58-4.93,1.86a3.88,3.88,0,0,1-2-2.65,10.84,10.84,0,0,1-.49-3.29,11,11,0,0,1,1.93-6.37,4,4,0,0,1,2.67-1.92,2,2,0,0,1,2,1.47c.3,1.22-.7,2.42-1.6,3.21a6.11,6.11,0,0,1-3.51,1.53C139.43,435.71,139.43,436.77,140.17,436.71Z" transform="translate(0 0)"/><path d="M149.41,429.09a4.9,4.9,0,0,1,1.5,2.76c.38,1.32.71,2.67,1,4a48.89,48.89,0,0,1,.9,8.27H154a29.6,29.6,0,0,1,.42-9.2c.48-2.32,1.44-5.8,4.41-6.36.73-.15.42-1.17-.31-1-3.22.63-4.52,4.06-5.11,6.65a30.22,30.22,0,0,0-.57,9.94c.07.66,1.16.7,1.16,0a50.15,50.15,0,0,0-1-8.89,37.07,37.07,0,0,0-1-4.15,5.34,5.34,0,0,0-1.9-2.93.61.61,0,0,0-.79.19.52.52,0,0,0,.21.71Z" transform="translate(0 0)"/><path d="M172.48,417.73a4,4,0,0,0-.67-4.51,3.88,3.88,0,0,0-4.63-.78,7.46,7.46,0,0,0-3.58,4.42,33,33,0,0,0-1.39,6.5,70.67,70.67,0,0,0-.93,13.77A11.3,11.3,0,0,0,162.8,443a6.24,6.24,0,0,0,4.44,2.74,4.73,4.73,0,0,0,3-.58,4.11,4.11,0,0,0,1.67-2.77,26.8,26.8,0,0,0,.6-6.31.58.58,0,0,0-1.16,0,28,28,0,0,1-.29,4.75,7.84,7.84,0,0,1-.72,2.66,2.61,2.61,0,0,1-2.08,1.21,4.86,4.86,0,0,1-4-1.69,8.22,8.22,0,0,1-1.71-4.85,45.14,45.14,0,0,1,0-5.93c.09-2.05.27-4.1.52-6.14s.55-4,.94-5.93a12.82,12.82,0,0,1,1.85-5.09c.88-1.24,2.81-2.67,4.47-1.72a3,3,0,0,1,1.21,3.85c-.33.61.67,1.15,1,.54Z" transform="translate(0 0)"/><path d="M172.55,437.89q.13-2.94,0-5.88a.55.55,0,0,0-.42-.52,23.49,23.49,0,0,0-5.3-.21c-.74.05-.75,1.12,0,1.06a21.94,21.94,0,0,1,5,.18l-.42-.51q.09,2.94,0,5.88C171.36,438.58,172.51,438.57,172.55,437.89Z" transform="translate(0 0)"/><path d="M178.26,436.14c1.68-.31,3.42.34,5.07-.16a4,4,0,0,0,2.65-2.34,2.89,2.89,0,0,0-1-3.22,4.55,4.55,0,0,0-3.42-.86,7.38,7.38,0,0,0-6,5.3,9,9,0,0,0-.22,4.28,4.81,4.81,0,0,0,2.24,3.54,8.77,8.77,0,0,0,4.74.81,7.12,7.12,0,0,0,4.34-1.8.49.49,0,0,0,0-.75.62.62,0,0,0-.79,0c-1.74,1.61-4.35,1.81-6.64,1.21a3.34,3.34,0,0,1-2.51-2.36,7.66,7.66,0,0,1-.25-3.65,6.61,6.61,0,0,1,4.13-5.27,4.16,4.16,0,0,1,2.89-.08A2.09,2.09,0,0,1,185,433a2.75,2.75,0,0,1-2.18,2,8.41,8.41,0,0,1-2.35,0,9.8,9.8,0,0,0-2.48.08c-.73.13-.43,1.16.3,1Z" transform="translate(0 0)"/><path d="M209.53,412.81q-1.17,6.68-2.71,13.3a100.08,100.08,0,0,1-3.47,12.31,26.88,26.88,0,0,1-3.15,6.12c-.39.58.6,1.11,1,.54a36.34,36.34,0,0,0,4.86-11.34c1.21-4.34,2.25-8.72,3.17-13.12q.77-3.75,1.43-7.53c.12-.67-1-1-1.12-.28Z" transform="translate(0 0)"/><path d="M206,429.55c1.45.56,2.8-.24,3.94-1a16.13,16.13,0,0,0,2.9-2.69,28.8,28.8,0,0,0,4.34-7.4c.69-1.61,1.3-3.24,1.91-4.88.24-.64-.88-.92-1.12-.28a50.49,50.49,0,0,1-4.31,9.55,19.34,19.34,0,0,1-2.91,3.62,13.37,13.37,0,0,1-1.81,1.45c-.61.4-1.55,1.06-2.35.76a.63.63,0,0,0-.8.19.51.51,0,0,0,.21.72Z" transform="translate(0 0)"/><path d="M207.79,429.71a2.35,2.35,0,0,1,2.6-.25,4.22,4.22,0,0,1,1.59,1.89,22.4,22.4,0,0,1,1.63,6c.37,2,.57,4.11,1.84,5.79a4.17,4.17,0,0,0,2.25,1.61,5.17,5.17,0,0,0,3.13-.33c2-.78,4.56-2.07,4.31-4.46-.08-.67-1.23-.68-1.16,0a2.49,2.49,0,0,1-1.22,2.32,10.64,10.64,0,0,1-2.88,1.33,3,3,0,0,1-2.8-.35,5.1,5.1,0,0,1-1.5-2.32,56.66,56.66,0,0,1-1.33-6.21,12,12,0,0,0-2-5.11,3.91,3.91,0,0,0-2.3-1.46,3.68,3.68,0,0,0-3,.78c-.56.45.26,1.2.82.75Z" transform="translate(0 0)"/><path d="M191.57,436.45c1.67-.31,3.42.33,5.06-.16a4,4,0,0,0,2.66-2.34,2.92,2.92,0,0,0-1-3.22,4.58,4.58,0,0,0-3.43-.86,7.35,7.35,0,0,0-6,5.3,9.13,9.13,0,0,0-.22,4.28,4.84,4.84,0,0,0,2.25,3.54,8.73,8.73,0,0,0,4.73.81A7.09,7.09,0,0,0,200,442a.5.5,0,0,0,0-.75.62.62,0,0,0-.82,0c-1.74,1.61-4.36,1.81-6.65,1.21a3.3,3.3,0,0,1-2.5-2.35,7.68,7.68,0,0,1-.26-3.65,6.65,6.65,0,0,1,4.13-5.28,4.17,4.17,0,0,1,2.89-.08,2.08,2.08,0,0,1,1.47,2.18,2.73,2.73,0,0,1-2.17,2,8.11,8.11,0,0,1-2.36,0,9.82,9.82,0,0,0-2.48.08c-.73.13-.42,1.16.31,1Z" transform="translate(0 0)"/></g></g></svg>