<svg id="Capa_1" data-name="Capa 1" xmlns="http://www.w3.org/2000/svg" viewBox="0 0 960 560"><defs><style>.cls-1{fill:#d2a470;}.cls-2{opacity:0.39;}.cls-3{fill:#454545;}.cls-4{fill:#eed088;stroke:#eeb34f;}.cls-10,.cls-11,.cls-15,.cls-16,.cls-17,.cls-18,.cls-19,.cls-20,.cls-21,.cls-22,.cls-25,.cls-4,.cls-40,.cls-42,.cls-45,.cls-47,.cls-49,.cls-50,.cls-8,.cls-9{stroke-miterlimit:10;}.cls-11,.cls-25,.cls-4,.cls-40,.cls-42,.cls-8,.cls-9{stroke-width:2px;}.cls-5{fill:#00977f;}.cls-6{fill:#d50c4a;}.cls-7{fill:#fbe0ec;}.cls-11,.cls-15,.cls-16,.cls-17,.cls-18,.cls-19,.cls-20,.cls-21,.cls-22,.cls-25,.cls-40,.cls-42,.cls-45,.cls-47,.cls-49,.cls-50,.cls-8{fill:none;}.cls-8{stroke:#7700b7;}.cls-9{fill:#310050;stroke:#c00005;}.cls-10{fill:#580070;opacity:0.31;}.cls-10,.cls-17{stroke:#670002;}.cls-10,.cls-26,.cls-38,.cls-39,.cls-40,.cls-41,.cls-42,.cls-43,.cls-44,.cls-45,.cls-46,.cls-47,.cls-48,.cls-49{isolation:isolate;}.cls-11{stroke:#fff;}.cls-12{fill:#c02;}.cls-13{fill:#fff5ff;}.cls-14{fill:#ff7689;}.cls-15{stroke:#790003;}.cls-16{stroke:#7c0003;}.cls-18{stroke:#1700a9;}.cls-19{stroke:#880003;}.cls-20{stroke:#7e0004;}.cls-21{stroke:#6d0003;}.cls-22{stroke:#040097;}.cls-23{fill:#ff134a;}.cls-24{fill:#29251d;}.cls-25{stroke:#ff0551;}.cls-26{fill:#c71463;opacity:0.57;}.cls-27{fill:#88321b;}.cls-28{fill:#ff292f;}.cls-29{fill:#ffa400;}.cls-30{fill:#ffa0cd;}.cls-31{fill:#5bff72;}.cls-32{fill:#9f321b;}.cls-33{fill:#ffc400;}.cls-34{fill:#1a9d00;}.cls-35{fill:#d80005;}.cls-36{fill:#fff;}.cls-37{fill:#4b0058;}.cls-39,.cls-40,.cls-41,.cls-42{font-size:80px;font-family:FranklinGothic-Medium, Franklin Gothic Medium;font-weight:500;}.cls-39,.cls-41{fill:#ffd300;}.cls-40,.cls-42{stroke:#950000;}.cls-41,.cls-42{letter-spacing:-0.01em;}.cls-43{font-size:18px;font-family:ComicSansMS, Comic Sans MS;}.cls-44,.cls-45,.cls-46,.cls-47{font-size:36px;}.cls-44,.cls-46,.cls-48{fill:#fc0;}.cls-44,.cls-45,.cls-46,.cls-47,.cls-48,.cls-49{font-family:Impact;}.cls-45,.cls-47{stroke:#830000;}.cls-45,.cls-47,.cls-49{stroke-width:1.5px;}.cls-46,.cls-47{letter-spacing:-0.02em;}.cls-48,.cls-49{font-size:100px;}.cls-49{stroke:#7a0000;}.cls-50{stroke:#e20d13;}.cls-51{fill:#e20d13;}</style></defs><g id="Capa_3" data-name="Capa 3"><rect class="cls-1" width="960" height="560"/><g class="cls-2"><ellipse class="cls-3" cx="481.5" cy="398" rx="363.5" ry="115"/></g></g><g id="Capa_5" data-name="Capa 5"><rect class="cls-4" x="453.73" y="137.58" width="7.69" height="107.23"/><rect class="cls-4" x="444.27" y="147.73" width="9.47" height="97.07"/><rect class="cls-4" x="421.78" y="165.8" width="9.47" height="65.47"/><rect class="cls-4" x="440.12" y="126.85" width="7.69" height="107.23"/><rect class="cls-4" x="398.12" y="137.01" width="9.47" height="97.07"/><rect class="cls-4" x="411.72" y="152.25" width="7.1" height="79.01"/><rect class="cls-4" x="380.37" y="149.43" width="11.24" height="74.5"/><rect class="cls-4" x="405.22" y="154.51" width="9.47" height="65.47"/><rect class="cls-4" x="423.56" y="115.56" width="7.69" height="107.23"/><rect class="cls-4" x="381.55" y="125.72" width="9.47" height="97.07"/><rect class="cls-4" x="395.16" y="140.96" width="7.1" height="79.01"/><rect class="cls-4" x="363.8" y="138.14" width="11.24" height="74.5"/><rect class="cls-4" x="397.52" y="169.18" width="9.47" height="65.47"/><rect class="cls-4" x="438.94" y="143.78" width="7.1" height="79.58"/><rect class="cls-4" x="415.87" y="130.24" width="7.69" height="107.23"/><rect class="cls-4" x="373.86" y="140.4" width="9.47" height="97.07"/><rect class="cls-4" x="387.47" y="155.64" width="7.1" height="79.01"/><rect class="cls-4" x="356.11" y="152.81" width="11.24" height="74.5"/><rect class="cls-4" x="430.66" y="147.73" width="7.1" height="79.01"/><rect class="cls-4" x="393.97" y="160.15" width="11.24" height="74.5"/><path class="cls-5" d="M348.23,184.6l16,150.69s11.24-6.21,14.79-6.21,34.32.57,40.23,3.39,23.08,5.64,27.81,11.29,26,1.12,26,1.12L490.23,192.5s-13.61-4.52-17.75,0-12.42,14.11-20.11,17.5-33.14,10.72-35.5,10.72c-3.6,0-30.18-5.08-36.1-7.34-6.26-2.39-16.56-12.41-20.11-18.62s-3-10.16-3-10.16S349.42,182.34,348.23,184.6Z" transform="translate(0 0)"/><ellipse class="cls-6" cx="292.74" cy="178.69" rx="24.03" ry="24.69"/><path class="cls-7" d="M217.64,259.08a70,70,0,0,1-14.09-16.82c-4.09-6.78-6.23-10.3-4.81-13.23,2.84-5.87,15.62-.45,29.59-8.91a44.52,44.52,0,0,0,10.35-8.9c6.38-7.68,4.67-11.47,9.21-14.67,6.9-4.82,12.82,2.22,23.29-1.8,8.2-3.12,7.33-8.48,16.65-11.81,6.6-2.36,7.7.1,15.53-1.78,13.06-3.15,19-12.13,22.18-10,2.2,1.46-1.06,5.45,1.49,11.13,2.72,6.07,8.4,5.76,9.61,11.14,1,4.27-2.22,6.46-.36,9.66,1.39,2.41,4.39,3.23,7,3.94,6.84,1.84,10.6-.58,12.21,1.42,1.89,2.36-2.74,6.38-1.15,10.39,1.31,3.24,5.75,4,10.72,5.37,12.66,3.34,21.76,5.73,24,10.37,3.52,7.2-7.92,22.69-22.93,28.94-11.37,4.78-22.09,3.14-26.62,2.51C283.61,258.15,238.56,276.12,217.64,259.08Z" transform="translate(0 0)"/><polyline class="cls-8" points="235.01 392.9 278.65 381.1 323.4 381.1 357.42 390.04"/><path class="cls-9" d="M241.33,365.85,267.79,372h55.64l26.16-8.15,9.2-48.85,9.49-7.12L378.42,256s-71,4.84-82.1,4.59-84.38-6.11-87-8.39,12.11,55.46,12.11,55.46l8.82,7.38Z" transform="translate(0 0)"/><path class="cls-10" d="M234.59,395.41,264.5,404h62.88L357,392.55l10.36-68.7,10.72-10,11.5-73s-80.24,6.8-92.81,6.45-95.41-8.59-98.37-11.81,13.68,78,13.68,78l10,10.38Z" transform="translate(0 0)"/><path class="cls-11" d="M465.13,308.4c8.33,5.39,26,12.63,47.76,13,23.17.36,39.34-7.51,47.77-13" transform="translate(0 0)"/><path class="cls-12" d="M560.36,183.24l26.25,172.93s1.39,6.93,3.75,7.28,6.9-5.69,7.32-8.51,59.68-157.26,59.68-157.26" transform="translate(0 0)"/><path class="cls-13" d="M626.36,56.69c-3.53,2.27-2.21,4.43-6.41,10.57-3.48,5.09-5.06,4.59-6,7.76-1.52,5.15,2.07,8.55-.36,10.51-1.86,1.49-4.2-.31-8.56.64a15.65,15.65,0,0,0-11.42,11.75c-.57,2.94.45,3.84-.84,5.63-2,2.83-5.76,2.26-10.3,4.23-5.49,2.39-9.45,7.32-10.24,11.92-1,6,3.83,8.62,1.73,12.75-1.72,3.38-5.86,3.34-11.76,5.93-9.64,4.21-17.25,12.46-18.88,21.2-.31,1.67-2,10.5,4.72,17a23.73,23.73,0,0,0,8.9,5.17c20.37,7.15,50.58,8.5,76.61,13.33,21,3.9,29.79,8.3,41.69,4.28,2.88-1,12.2-3.49,14.83-10.27,2.74-7.08-2.17-17.47-10.08-21.67-2.13-1.13-5.7-2.46-5.49-3.7s3.23-.68,5.15-2.11c3.62-2.7,1.93-11-3.54-16.86-4.91-5.21-10.47-5.83-10.71-9.27-.19-2.77,3.36-2.86,4.67-7s-.8-9.19-4.24-12.16a18.83,18.83,0,0,0-5-3c-2.5-1-3.31-.54-4.06-1.21-2.41-2.12,5-7.16,3-12C658.12,96,651.66,96.3,650.1,92c-1.23-3.44,2.42-4.67,1.26-8.46-.82-2.69-3-3-8.48-8-5.2-4.64-7.8-7-8.21-9.86-.73-5.22,5.56-8,3.91-10C637.14,53.87,630.47,54.05,626.36,56.69Z" transform="translate(0 0)"/><path class="cls-14" d="M595.14,120.23c-1.2.73,3.54,11.62,15.36,18.61,9.23,5.46,28.37,11.84,38.06,12.39,1.12.07,4.15.17,5.77,1.82,2,2-.17,4.18,1.53,6s5.06.52,11.83,1.76c6.56,1.21,7.92,3.31,10.51,2.53,3.6-1.1,4.58-6.28,3.9-10-1.31-7.14-9.29-11.56-10.29-12.1-7.32-3.93-11.74-1.86-29.71-3.46-11.44-1-18.82-1.69-27.07-5C602,127.58,596.23,119.56,595.14,120.23Z" transform="translate(0 0)"/><path class="cls-14" d="M616.45,90.75c-1.48.75.42,6.76,5.7,10.45,3.54,2.48,10,4.9,12.87,2.88,3.45-2.43-.43-9.78-1-9.75s1.24,4.73-.84,5.64C629.57,101.57,618.79,89.57,616.45,90.75Z" transform="translate(0 0)"/><path class="cls-14" d="M608.43,120.29c-.11.24,6.43,2.47,12.59,4.75,12.36,4.6,16,6.73,23.1,7.29,3.58.27,8.34.64,9.88-1.41,2.16-2.89-2.61-9.81-8.06-10.81-4.13-.75-5.64,2.43-11.49,4C622.58,127.45,608.59,119.93,608.43,120.29Z" transform="translate(0 0)"/><path class="cls-14" d="M619.53,159.4c-9.16-1.9-12.45-4.4-28.45-11.92-10.6-5-22-9.91-21.22-11.8.24-.58,1.41-.4,2.65-1.53,2-1.82,1-4.12,1.88-4.52,1.9-.84,9.82,7.57,12.94,10.57,17.31,16.59,45.85,18.44,45.36,20.19C632.44,161.25,625.62,160.65,619.53,159.4Z" transform="translate(0 0)"/><path class="cls-15" d="M565.72,187.88A104.12,104.12,0,0,0,591,212.77c19.47,13.67,39.62,18.84,50.09,20.91" transform="translate(0 0)"/><path class="cls-16" d="M566.43,211.51c1.67,4.52,8,19.57,26.84,30.89a84.72,84.72,0,0,0,38.2,11.45" transform="translate(0 0)"/><path class="cls-17" d="M571.38,249.28a79.69,79.69,0,0,0,17.56,14.5,97.48,97.48,0,0,0,33.45,12.55" transform="translate(0 0)"/><path class="cls-18" d="M653,291.17a56.16,56.16,0,0,0,19.82,15.73,69.49,69.49,0,0,0,22.12,6.43" transform="translate(0 0)"/><path class="cls-19" d="M602.91,193.9a149,149,0,0,1-15.67,15.91A165.1,165.1,0,0,1,566.84,225" transform="translate(0 0)"/><path class="cls-19" d="M627.13,193.66A156.64,156.64,0,0,1,613,215.56c-5.78,7.5-9.9,12.85-17.28,18.56A87.54,87.54,0,0,1,572,246.92" transform="translate(0 0)"/><path class="cls-20" d="M650.85,204.87a220.54,220.54,0,0,1-18.71,21.68,263.22,263.22,0,0,1-58.2,44.18" transform="translate(0 0)"/><path class="cls-21" d="M633.92,250A114.88,114.88,0,0,1,616,268.89a139.43,139.43,0,0,1-37.56,22.36" transform="translate(0 0)"/><path class="cls-22" d="M700.2,309.17a57,57,0,0,1-17.44,15.16,73.24,73.24,0,0,1-21.41,8" transform="translate(0 0)"/><rect class="cls-4" x="463.2" y="140.4" width="7.1" height="79.58"/><rect class="cls-4" x="446.63" y="129.11" width="7.1" height="79.58"/><rect class="cls-4" x="469.12" y="154.51" width="9.47" height="65.47"/><rect class="cls-4" x="476.81" y="151.12" width="7.1" height="79.58"/><rect class="cls-23" x="508.28" y="35.34" width="8.49" height="297.82"/><path class="cls-24" d="M449.59,144.12l18.54,202.41s27,9.81,40.92,9.81,47.88-5.35,48.65-8S578,146,578,146s-49,8-65,7C501.41,152.28,449.59,144.12,449.59,144.12Z" transform="translate(0 0)"/><path class="cls-25" d="M453.45,186.92A165.67,165.67,0,0,0,506,196.73c28.58.61,51.65-2.89,66.42-8.92" transform="translate(0 0)"/><path class="cls-25" d="M455,203c10.1,5.94,31.54,13.9,57.91,14.27,28.1.39,47.71-8.27,57.92-14.27" transform="translate(0 0)"/><path class="cls-25" d="M463.49,295.71a125.91,125.91,0,0,0,43.31,8.91c23.57.55,42.59-2.63,54.76-8.1" transform="translate(0 0)"/><path class="cls-26" d="M443.41,143.66a273.17,273.17,0,0,0,64.1,9.81,272.68,272.68,0,0,0,74.9-8V130.29s-44,8.92-50.19,9.81-84.17-9.81-86.49-9.81S443.41,143.66,443.41,143.66Z" transform="translate(0 0)"/><path class="cls-26" d="M446.5,130.29c-4.24-1,4.26-10.61,7.73-17.83a70.86,70.86,0,0,1,22.39-26.75A62.85,62.85,0,0,1,499,75.9a49.16,49.16,0,0,1,17.77-1.79c4.87.48,8.29,1.64,13.9,3.57,8.76,3,14,4.82,20.07,8.92,10.54,7.05,16.43,16,19.31,20.51,3.78,5.89,11.82,18.39,8.49,24.07-2.14,3.66-8.13,2.29-10.81,2.68-18.53,2.67-15.44,7.13-48.65,6.24-31.69-.85-39.38-4.46-57.91-7.14C457.34,132.41,450.36,131.18,446.5,130.29Z" transform="translate(0 0)"/><path class="cls-27" d="M503.06,364.56c-1.18,2.08-1.4,7.76-1.54,11.27a70.61,70.61,0,0,0,1,13.77c1.88,10,37.29,40.16,101.72,44.45,56.21,3.74,74.64-5.73,119.62-30.67,1.7-.95,6.57-1.88,8.18-6.26,1-2.78,0-4.67-.51-13.78-.37-6.52-2-17.43-2.56-18.34-3.63-5.79-25.48,9.12-34,12-42.58,14.41-82.73,10.34-98,6C555.89,371.3,508.07,355.73,503.06,364.56Z" transform="translate(0 0)"/><path class="cls-28" d="M504.34,418.26c4.61-4.65,24.32,5.78,40.9,12,41.5,15.66,93.43,16.49,131.88,5.79,23.77-6.61,46.08-18.65,50.1-13.82,1.92,2.32-.93,7.81-3.58,12.93a45,45,0,0,1-9.2,12c-11.23,10.5-27.07,15.09-32.21,16.5-30.89,8.5-60.57,8.41-73.61,8-16.52-.49-40.17-2.45-63.78-10.13-5.23-1.7-19.27-6.55-29.76-17.07A40.2,40.2,0,0,1,506.9,433C505.16,429.19,501.47,421.15,504.34,418.26Z" transform="translate(0 0)"/><path class="cls-27" d="M501.79,399.08c-1.19,1.48-1.4,5.53-1.54,8a36.4,36.4,0,0,0,1,9.81c1.88,7.1,37.3,28.61,101.73,31.66,56.21,2.66,74.63-4.08,119.62-21.85,1.7-.67,6.57-1.34,8.18-4.46,1-2,0-3.32-.51-9.81-.37-4.64.05-5.15-.52-5.8-3.62-4.12-27.77,9.1-36.29,11.15-42.58,10.27-93.61,8.45-108.88,5.35C543.49,414.83,506.8,392.79,501.79,399.08Z" transform="translate(0 0)"/><path class="cls-29" d="M501.92,395.29c0,8.36,4.27,27.4,8.62,28.27,3.87.77.55-17.28,7.76-14.58,16.39,6.16,48.08,13.14,72,14.93,63.85,4.76,130-2.7,138.8-20.81.48-1,2.1-4.32.52-5.8-4-3.76-22.77,10.39-41.42,12.78-32.62,4.2-55.92,7-93,3.27C545,408.26,525.42,398,517.33,398,514.64,398,501.49,393.47,501.92,395.29Z" transform="translate(0 0)"/><path class="cls-28" d="M517.51,304.9a67.23,67.23,0,0,0-15.34,14.15c-1.1,1.45-18.47,25-9.71,43.82,8.24,17.69,35.29,22,63.39,26.47,13.47,2.15,31.13,2,66.45,1.83,38.52-.23,50.19-1.54,62.37-4.11,19.17-4,38.34-8.35,46.51-22.82,5.42-9.59,3.66-19.48,3.07-22.82-2.91-16.38-15.81-26.74-22.49-31.95-43.66-34.09-116-25.28-143.64-21.91C554.43,289.22,535.16,292.67,517.51,304.9Z" transform="translate(0 0)"/><path class="cls-30" d="M291,387c-1.76-.66-14.71-5.42-14.84-2.95a35.25,35.25,0,0,0,1,9.71c1.88,7,37.3,28.33,101.73,31.35,56.21,2.64,74.63-4,119.62-21.63,1.69-.67,6.57-1.33,8.18-4.42,1-1.95,0-3.29-.52-9.71-.36-4.6.06-5.1-.51-5.74-3.62-4.09-27.77,9-36.29,11-42.58,10.16-93.62,8.36-108.88,5.3C319.4,391.69,299,390,291,387Z" transform="translate(0 0)"/><path class="cls-31" d="M279,419.09c4.61-4.65,24.31,5.78,40.89,12,41.5,15.66,93.44,16.49,131.89,5.8,23.77-6.61,46.08-18.66,50.09-13.83,1.93,2.32-.92,7.81-3.57,12.93a44.87,44.87,0,0,1-9.21,12c-11.22,10.51-27.07,15.09-32.2,16.5-30.89,8.5-60.57,8.41-73.61,8C366.76,472,343.1,470,319.5,462.36c-5.23-1.7-19.28-6.55-29.77-17.07a40.41,40.41,0,0,1-8.18-11.59C279.8,430,276.11,422,279,419.09Z" transform="translate(0 0)"/><path class="cls-32" d="M276.42,399.92c-1.18,1.48-1.4,5.52-1.53,8a36,36,0,0,0,1,9.81c1.88,7.11,37.29,28.61,101.73,31.66,56.2,2.67,74.63-4.08,119.61-21.85,1.7-.67,6.58-1.34,8.18-4.46,1-2,0-3.32-.51-9.81-.37-4.64.06-5.15-.51-5.79-3.63-4.13-27.78,9.09-36.29,11.14-42.59,10.27-93.62,8.45-108.89,5.36C318.12,415.66,281.44,393.63,276.42,399.92Z" transform="translate(0 0)"/><path class="cls-33" d="M276.55,396.12c.05,8.36,4.28,27.4,8.63,28.27,3.87.77.55-17.28,7.76-14.57,16.39,6.15,48.07,13.14,72,14.92,63.84,4.76,130-2.7,138.8-20.81.48-1,2.09-4.32.51-5.8-4-3.76-22.76,10.39-41.42,12.79-32.62,4.19-55.92,7-92.95,3.26C319.6,409.1,300.07,398.8,292,398.8,289.27,398.8,276.13,394.3,276.55,396.12Z" transform="translate(0 0)"/><path class="cls-34" d="M505.62,366.05c.73,6.23,13,21.11-52.33,35.24-17.32,3.74-40.64,9.54-62.71,9.54-5.5,0-27.74-4.12-48.27-10.59C308.92,389.71,276,388.63,276,384c0-8.57,4.19-21.65,34-14,22.41,5.75,58.63,19.95,78.55,20,31,.1,59.49-8.06,64.74-9.05C488.84,374.2,504.54,356.83,505.62,366.05Z" transform="translate(0 0)"/><path class="cls-31" d="M292.14,305.73a67.4,67.4,0,0,0-15.33,14.15c-1.1,1.45-18.48,25-9.71,43.82,8.23,17.69,35.28,22,63.38,26.48,13.48,2.14,31.14,2,66.46,1.82,38.51-.23,50.19-1.54,62.36-4.11,19.18-4,38.34-8.35,46.52-22.82,5.42-9.59,3.66-19.48,3.07-22.82-2.91-16.38-15.81-26.73-22.5-31.95-43.66-34.08-116-25.27-143.64-21.91C329.06,290.05,309.8,293.5,292.14,305.73Z" transform="translate(0 0)"/><path class="cls-35" d="M321.18,312.64a1.5,1.5,0,1,0-1.5-1.5A1.5,1.5,0,0,0,321.18,312.64Z" transform="translate(0 0)"/><path class="cls-35" d="M304.79,334.5a1.5,1.5,0,1,0-1.5-1.5A1.5,1.5,0,0,0,304.79,334.5Z" transform="translate(0 0)"/><path class="cls-35" d="M344.32,338.68a1.5,1.5,0,1,0-1.5-1.5A1.5,1.5,0,0,0,344.32,338.68Z" transform="translate(0 0)"/><path class="cls-35" d="M374.54,314.89a1.5,1.5,0,1,0-1.5-1.5A1.5,1.5,0,0,0,374.54,314.89Z" transform="translate(0 0)"/><path class="cls-35" d="M401.21,340a1.5,1.5,0,1,0-1.5-1.5A1.5,1.5,0,0,0,401.21,340Z" transform="translate(0 0)"/><path class="cls-35" d="M430.14,310.39a1.5,1.5,0,1,0-1.5-1.5A1.5,1.5,0,0,0,430.14,310.39Z" transform="translate(0 0)"/><path class="cls-35" d="M456.18,336.75a1.5,1.5,0,1,0-1.5-1.5,1.5,1.5,0,0,0,1.5,1.5Z" transform="translate(0 0)"/><path class="cls-35" d="M468.71,308.14a1.5,1.5,0,0,0,0-3h0a1.5,1.5,0,1,0,0,3Z" transform="translate(0 0)"/><path class="cls-36" d="M399.29,293.36a1.5,1.5,0,1,0-1.5-1.5A1.5,1.5,0,0,0,399.29,293.36Z" transform="translate(0 0)"/><path class="cls-36" d="M435.61,335.79a1.5,1.5,0,1,0-1.5-1.5A1.5,1.5,0,0,0,435.61,335.79Z" transform="translate(0 0)"/><path class="cls-36" d="M446.86,298.5a1.5,1.5,0,1,0-1.5-1.5A1.5,1.5,0,0,0,446.86,298.5Z" transform="translate(0 0)"/><path class="cls-36" d="M488,329a1.5,1.5,0,1,0-1.5-1.5A1.5,1.5,0,0,0,488,329Z" transform="translate(0 0)"/><path class="cls-36" d="M372.29,340.93a1.5,1.5,0,1,0-1.5-1.5A1.5,1.5,0,0,0,372.29,340.93Z" transform="translate(0 0)"/><path class="cls-36" d="M345.61,301.39a1.5,1.5,0,1,0-1.5-1.5A1.5,1.5,0,0,0,345.61,301.39Z" transform="translate(0 0)"/><path class="cls-36" d="M323.11,343.18a1.5,1.5,0,1,0-1.5-1.5A1.5,1.5,0,0,0,323.11,343.18Z" transform="translate(0 0)"/><path class="cls-36" d="M300,307.18a1.5,1.5,0,1,0-1.5-1.5A1.5,1.5,0,0,0,300,307.18Z" transform="translate(0 0)"/><path class="cls-36" d="M279.39,333.86a1.5,1.5,0,1,0-1.5-1.5A1.5,1.5,0,0,0,279.39,333.86Z" transform="translate(0 0)"/><path class="cls-36" d="M517.89,339a1.5,1.5,0,1,0-1.5-1.5A1.5,1.5,0,0,0,517.89,339Z" transform="translate(0 0)"/><path class="cls-36" d="M552.93,306.54a1.5,1.5,0,1,0-1.5-1.5A1.5,1.5,0,0,0,552.93,306.54Z" transform="translate(0 0)"/><path class="cls-36" d="M573.18,340a1.5,1.5,0,1,0-1.5-1.5A1.5,1.5,0,0,0,573.18,340Z" transform="translate(0 0)"/><path class="cls-36" d="M619.46,305.89a1.5,1.5,0,1,0-1.5-1.5A1.5,1.5,0,0,0,619.46,305.89Z" transform="translate(0 0)"/><path class="cls-36" d="M641,345.11a1.5,1.5,0,1,0-1.5-1.5A1.5,1.5,0,0,0,641,345.11Z" transform="translate(0 0)"/><path class="cls-36" d="M674.11,305.25a1.5,1.5,0,1,0-1.5-1.5A1.5,1.5,0,0,0,674.11,305.25Z" transform="translate(0 0)"/><path class="cls-36" d="M706.25,340a1.5,1.5,0,1,0-1.5-1.5A1.5,1.5,0,0,0,706.25,340Z" transform="translate(0 0)"/><path class="cls-36" d="M707.21,311a1.5,1.5,0,1,0-1.5-1.5A1.5,1.5,0,0,0,707.21,311Z" transform="translate(0 0)"/><path class="cls-36" d="M518.54,308.79a1.5,1.5,0,1,0-1.5-1.5A1.5,1.5,0,0,0,518.54,308.79Z" transform="translate(0 0)"/><path class="cls-37" d="M534,307.5a1.5,1.5,0,1,0-1.5-1.5A1.5,1.5,0,0,0,534,307.5Z" transform="translate(0 0)"/><path class="cls-37" d="M545.21,330a1.5,1.5,0,1,0-1.5-1.5A1.5,1.5,0,0,0,545.21,330Z" transform="translate(0 0)"/><path class="cls-37" d="M558.39,352.18a1.5,1.5,0,1,0-1.5-1.5A1.5,1.5,0,0,0,558.39,352.18Z" transform="translate(0 0)"/><path class="cls-37" d="M578.32,311.36a1.5,1.5,0,1,0-1.5-1.5A1.5,1.5,0,0,0,578.32,311.36Z" transform="translate(0 0)"/><path class="cls-37" d="M601.14,328.07a1.5,1.5,0,1,0-1.5-1.5A1.5,1.5,0,0,0,601.14,328.07Z" transform="translate(0 0)"/><path class="cls-37" d="M630.39,328.39a1.5,1.5,0,1,0-1.5-1.5A1.5,1.5,0,0,0,630.39,328.39Z" transform="translate(0 0)"/><path class="cls-37" d="M646.46,306.86a1.5,1.5,0,1,0-1.5-1.5A1.5,1.5,0,0,0,646.46,306.86Z" transform="translate(0 0)"/><path class="cls-37" d="M613.68,348.64a1.5,1.5,0,1,0-1.5-1.5A1.5,1.5,0,0,0,613.68,348.64Z" transform="translate(0 0)"/><path class="cls-37" d="M667.36,350.25a1.5,1.5,0,1,0-1.5-1.5A1.5,1.5,0,0,0,667.36,350.25Z" transform="translate(0 0)"/><path class="cls-37" d="M684.71,327.11a1.5,1.5,0,1,0-1.5-1.5A1.5,1.5,0,0,0,684.71,327.11Z" transform="translate(0 0)"/><path class="cls-37" d="M693.07,306.86a1.5,1.5,0,1,0-1.5-1.5A1.5,1.5,0,0,0,693.07,306.86Z" transform="translate(0 0)"/><path class="cls-37" d="M659.32,323.57a1.5,1.5,0,1,0-1.5-1.5A1.5,1.5,0,0,0,659.32,323.57Z" transform="translate(0 0)"/><path class="cls-37" d="M699.5,353.46A1.5,1.5,0,1,0,698,352,1.5,1.5,0,0,0,699.5,353.46Z" transform="translate(0 0)"/><path class="cls-37" d="M717.5,327.11a1.5,1.5,0,1,0-1.5-1.5A1.5,1.5,0,0,0,717.5,327.11Z" transform="translate(0 0)"/><path class="cls-37" d="M598.89,300.75a1.5,1.5,0,1,0-1.5-1.5A1.5,1.5,0,0,0,598.89,300.75Z" transform="translate(0 0)"/></g><g id="Capa_4" data-name="Capa 4"><g class="cls-38"><text class="cls-39" transform="translate(32 90)">Combo Inu</text><text class="cls-40" transform="translate(32 90)">Combo Inu</text><text class="cls-41" transform="translate(403.45 90)">y</text><text class="cls-42" transform="translate(403.45 90)">y</text><text class="cls-39" transform="translate(437.66 90)">asha</text><text class="cls-40" transform="translate(437.66 90)">asha</text></g><text class="cls-43" transform="translate(6.46 540.79)">Combo Inuyahsa, incluye 1 hamburguesa de tu eleccion, 1 bebidad grandes, helado y papas incluidas, con un batido.</text><g class="cls-38"><text class="cls-44" transform="translate(32.39 154.14)">Solo ho</text><text class="cls-45" transform="translate(32.39 154.14)">Solo ho</text><text class="cls-46" transform="translate(141.29 154.14)">y</text><text class="cls-47" transform="translate(141.29 154.14)">y</text><text class="cls-44" transform="translate(156.77 154.14)">, no te pierdad </text><text class="cls-45" transform="translate(156.77 154.14)">, no te pierdad </text><text class="cls-44" transform="translate(32.39 197.34)"><tspan xml:space="preserve">esta promocion  !!!</tspan></text><text class="cls-45" transform="translate(32.39 197.34)"><tspan xml:space="preserve">esta promocion  !!!</tspan></text></g><text class="cls-48" transform="translate(676.71 446.14)">$ 200</text><text class="cls-49" transform="translate(676.71 446.14)">$ 200</text><g id="Capa_2" data-name="Capa 2"><path class="cls-50" d="M708.61,93.87s9.39-9.59,11-13.78,9.12-22,8.57-24.37,35.06-6.81,35.06-6.81V68.1" transform="translate(0 0)"/><path class="cls-51" d="M706.12,64.59,710,68.73s74-10.65,77.32-12.42S707.78,67,706.12,64.59Z" transform="translate(0 0)"/><path class="cls-51" d="M804,43.24c4.09-2.4-98,14.39-100.08,11.19l4.77,5.6" transform="translate(0 0)"/></g><g id="Capa_3-2" data-name="Capa 3-2"><path class="cls-51" d="M747.75,82.2q6.32.28,12.62.76l3.2.27a21.74,21.74,0,0,1,3,.28c.73.14,1.6.73,1.19,1.47-.23.43-.88.57-1.38.63-1.07.13-2.21.1-3.3.15l-3.55.15a.53.53,0,1,0,0,1.06h0l3.55-.15a23.77,23.77,0,0,0,3.37-.16,3.65,3.65,0,0,0,2-.73,1.74,1.74,0,0,0,.44-2,2.77,2.77,0,0,0-2.26-1.45c-1.15-.16-2.32-.23-3.47-.32-2.41-.21-4.82-.39-7.21-.55-2.74-.17-5.47-.32-8.22-.44a.53.53,0,1,0-.35,1,.53.53,0,0,0,.35,0Z" transform="translate(0 0)"/><path class="cls-51" d="M766.41,83.6c2.67.13,4.63-1.85,5.56-3.82a7.9,7.9,0,0,0-.4-7.39,11.76,11.76,0,0,0-6.09-5c-3.33-1.25-7-1.25-10.54-1.23-3.89,0-7.77,0-11.65.3a62.61,62.61,0,0,0-10.64,1.46,20.75,20.75,0,0,0-8.32,3.83c-2.34,1.9-4,4.52-3.43,7.37a4.27,4.27,0,0,0,2.27,3.08,10,10,0,0,0,4.7.57l11.83-.13h2.91a.53.53,0,0,0,.63-.43.53.53,0,0,0-.42-.63.74.74,0,0,0-.21,0l-10.93.13c-1.75,0-3.51.07-5.27.06-1.37,0-2.84-.18-3.65-1.25-1.66-2.18-.52-5.07,1.21-6.9a16.77,16.77,0,0,1,7.23-4.17,47,47,0,0,1,9.33-1.67c3.57-.36,7.16-.46,10.75-.5a64.6,64.6,0,0,1,10.22.24,13,13,0,0,1,7.35,3.32,8,8,0,0,1,2.6,6.43,6.07,6.07,0,0,1-3.59,5.12,3.67,3.67,0,0,1-1.47.21.53.53,0,1,0-.35,1,.53.53,0,0,0,.35,0Z" transform="translate(0 0)"/><path class="cls-51" d="M725,82.67a.78.78,0,0,0-.52-1l-.1,0a1,1,0,0,0-1,.32,2.64,2.64,0,0,0-.53,2.17,4.37,4.37,0,0,0,3.39,3.42,15.51,15.51,0,0,0,3,.4c1.24.08,2.47.15,3.71.2,2.43.09,4.89.1,7.33.07,2.82,0,5.63-.16,8.44-.32.77,0,.78-1.1,0-1-4,.22-8,.35-12,.32-2,0-4-.08-6-.19-1.65-.1-3.62,0-5.06-.87a3,3,0,0,1-1.36-1.64,2.27,2.27,0,0,1-.14-1,1.78,1.78,0,0,1,.1-.51.49.49,0,0,1,.06-.17,1.09,1.09,0,0,1,.08-.15c.13-.16,0-.28-.4-.35-.15.67,1,1,1.17.28Z" transform="translate(0 0)"/><path class="cls-51" d="M723.57,89.85a2.16,2.16,0,0,0,0,2.39,3.09,3.09,0,0,0,2.51,1.34,20.86,20.86,0,0,0,3.7-.33l4.11-.49,8.42-1,4-.48,2-.23a8.42,8.42,0,0,1,2-.18c.64.08.9.65,1.13,1.11s.54,1.17.81,1.76l1.81,3.9a.63.63,0,0,0,.77.36.58.58,0,0,0,.25-.12,25.71,25.71,0,0,1,7.07-4.33c2.14-.87,4.7-1.41,5.71-3.47.31-.62-.74-1.16-1.05-.53-1,2-3.71,2.41-5.73,3.28a27,27,0,0,0-6.86,4.3l1,.24L753.76,94a30.42,30.42,0,0,0-1.42-3,2.6,2.6,0,0,0-2.61-1.2c-1.3.11-2.6.31-3.89.47l-16,1.9-2.37.29a4.9,4.9,0,0,1-1.79,0c-.9-.25-1.55-1.29-1-2a.49.49,0,0,0-.18-.68l-.07,0a.66.66,0,0,0-.8.19Z" transform="translate(0 0)"/><path class="cls-51" d="M723.66,96.69a7.22,7.22,0,0,0-.07,3.27.63.63,0,0,0,.59.39q9.87.36,19.76.26c6.55-.07,13.13-.26,19.66-.7a5.47,5.47,0,0,0,3.74-1.34,2.8,2.8,0,0,0,.52-3.25c-.33-.61-1.38-.08-1.05.53a1.94,1.94,0,0,1-.81,2.39c-1,.68-2.51.62-3.73.7q-4.63.27-9.27.42-9.16.31-18.35.21-5.25-.06-10.48-.26l.59.38a6,6,0,0,1,.06-2.7c.16-.66-1-.95-1.18-.28Z" transform="translate(0 0)"/><path class="cls-51" d="M724,103.59c.32,1.32-.22,2.67-.2,4a3,3,0,0,0,2.29,2.92,16.09,16.09,0,0,0,2.48.35c1,.11,2,.21,3.08.29q3,.25,6.05.36a151.59,151.59,0,0,0,24-1.24c1.77-.23,3.65-.64,4.84-1.91a3.91,3.91,0,0,0,1-4.19c-.27-.63-1.45-.35-1.17.28a3,3,0,0,1-.79,3.3,7,7,0,0,1-4.08,1.49q-5.57.72-11.17,1a131.6,131.6,0,0,1-22.28-.53,5.32,5.32,0,0,1-2.35-.57,1.84,1.84,0,0,1-.71-1.66c0-1.41.5-2.82.16-4.23-.16-.66-1.33-.38-1.17.29Z" transform="translate(0 0)"/><path d="M786.14,76.62l-9,21.57-2.54,6.1c-.26.65.91.92,1.18.28l9-21.57,2.54-6.09c.27-.64-.9-.92-1.17-.28Z" transform="translate(0 0)"/><path d="M779.29,84.16h.18s-.05-.34-.05-.36a1.88,1.88,0,0,1,.18-.81,13.17,13.17,0,0,1,1.46-2.08,21.8,21.8,0,0,1,3.6-3.52,20.86,20.86,0,0,1,8.92-4,18.19,18.19,0,0,1,5.51-.21l-.45-.52a14.43,14.43,0,0,1-3.64,7.7,38.56,38.56,0,0,1-7.36,6.12l.86.74a14.9,14.9,0,0,1,9.78-2.88c1.36.12,2.71.77,2.75,2.09a4.41,4.41,0,0,1-.81,2.3c-.41.68-.86,1.34-1.33,2a37.22,37.22,0,0,1-14,11.81,34.23,34.23,0,0,1-9.73,3c-.77.12-.45,1.14.32,1a36.65,36.65,0,0,0,17.85-8.23,38.79,38.79,0,0,0,6.82-7.43c1-1.37,2.24-3,2.1-4.66a3.36,3.36,0,0,0-2.93-2.85,13,13,0,0,0-5.89.31,16.79,16.79,0,0,0-5.78,2.73c-.6.44.26,1.17.86.75a39.6,39.6,0,0,0,7.65-6.44,15.4,15.4,0,0,0,3.74-8.13.54.54,0,0,0-.45-.51,22,22,0,0,0-20.06,9.12,4.65,4.65,0,0,0-1.15,2.51c0,.77.4,1.59,1.42,1.41.77-.13.44-1.14-.32-1Z" transform="translate(0 0)"/><path d="M805.34,85.18A51.85,51.85,0,0,0,804,92.91c-.13,1.3-.23,2.62-.25,3.92a5.63,5.63,0,0,0,.81,3.42,2.79,2.79,0,0,0,2.89,1.2,5.15,5.15,0,0,0,2.8-1.9,10.83,10.83,0,0,0,2.2-6.36,84.49,84.49,0,0,0-.1-8.87c0-.68-1.22-.69-1.22,0,.06,2.33.16,4.66.16,7a13.33,13.33,0,0,1-1.29,6.4c-.62,1.17-2.87,4-4.38,2.12a4.78,4.78,0,0,1-.71-3.17c0-1.14.11-2.28.22-3.42a48.76,48.76,0,0,1,1.38-7.78c.17-.67-1-1-1.18-.29Z" transform="translate(0 0)"/><path d="M815,85.84l.58,13.32a.61.61,0,0,0,1.21,0A48,48,0,0,1,818,91.34a14.7,14.7,0,0,1,3.46-6.64c.5-.51-.35-1.26-.86-.74-4,4.14-4.54,10-5,15.2h1.22l-.58-13.32c0-.67-1.25-.68-1.22,0Z" transform="translate(0 0)"/><path d="M828.83,83.2c-.89-1-2.29-.07-2.89.68a14.19,14.19,0,0,0-1.83,3.3,17,17,0,0,0-1.31,7.53c.08,1.49.81,4.71,3.33,4.13a3.51,3.51,0,0,0,2.19-2.33,17.29,17.29,0,0,0,1.09-3.79,45.75,45.75,0,0,0,.41-9.06H828.6a99,99,0,0,1-1.16,20.63c-.24,1.74-.51,3.47-.79,5.21a35.52,35.52,0,0,1-.87,4.8c-.34,1.15-1.09,2.82-2.65,3s-2.44-1.28-2.84-2.27a6.54,6.54,0,0,1,2.29-7.6c.61-.42-.26-1.17-.86-.75a7.51,7.51,0,0,0-2.93,7.44,5.42,5.42,0,0,0,2.22,3.67,3.49,3.49,0,0,0,4.15-.31,7,7,0,0,0,2.1-4.33c.33-1.81.59-3.64.87-5.45.58-3.77,1.11-7.54,1.45-11.33a82.37,82.37,0,0,0,.22-12.76c0-.67-1.22-.68-1.22,0a57,57,0,0,1-.1,6.79,20.7,20.7,0,0,1-.54,3.32,11,11,0,0,1-1.07,3c-.3.51-1,1.41-1.72.91a3.21,3.21,0,0,1-1-2.09,11.59,11.59,0,0,1-.07-3,15.79,15.79,0,0,1,.57-3.2A16,16,0,0,1,826,86.07a12,12,0,0,1,1-1.55,2.21,2.21,0,0,1,.6-.58c.2-.12.3-.18.46,0,.47.54,1.33-.21.86-.74Z" transform="translate(0 0)"/><path d="M835.68,91.26a8.07,8.07,0,0,0,4.06-1.47,5.81,5.81,0,0,0,2.53-3.45,2.92,2.92,0,0,0-1.74-3,3.76,3.76,0,0,0-3.78.47,8.56,8.56,0,0,0-2.67,3.35,11.86,11.86,0,0,0-1.1,4,11.67,11.67,0,0,0,.34,4.16,5.71,5.71,0,0,0,2.22,3.5c2.35,1.5,7.13.66,7.59-2.16a.55.55,0,0,0-.43-.65h0a.63.63,0,0,0-.75.37c-.31,1.91-3.4,2.57-5.18,1.85a3.86,3.86,0,0,1-2.11-2.64,10.08,10.08,0,0,1-.52-3.27,10.63,10.63,0,0,1,2-6.35A4.18,4.18,0,0,1,839,84a2.06,2.06,0,0,1,2.08,1.46c.31,1.22-.74,2.42-1.68,3.2a6.52,6.52,0,0,1-3.69,1.52C834.9,90.27,834.9,91.32,835.68,91.26Z" transform="translate(0 0)"/><path d="M845.39,83.67A4.86,4.86,0,0,1,847,86.42a35.43,35.43,0,0,1,1,4,45.7,45.7,0,0,1,1,8.24h1.22a27.91,27.91,0,0,1,.44-9.16c.51-2.32,1.51-5.78,4.64-6.34.76-.14.44-1.16-.33-1-3.38.62-4.75,4-5.37,6.62a28.92,28.92,0,0,0-.6,9.9c.08.66,1.22.7,1.22,0a47.06,47.06,0,0,0-1.08-8.85A37.05,37.05,0,0,0,848,85.67a5.38,5.38,0,0,0-2-2.92.68.68,0,0,0-.83.19.52.52,0,0,0,.19.7h0Z" transform="translate(0 0)"/><path d="M869.63,72.35a3.77,3.77,0,0,0-.7-4.48,4.21,4.21,0,0,0-4.86-.79,7.44,7.44,0,0,0-3.76,4.41A30.85,30.85,0,0,0,858.84,78a67,67,0,0,0-1,13.71,10.62,10.62,0,0,0,1.6,5.83,6.64,6.64,0,0,0,4.66,2.74,5.22,5.22,0,0,0,3.15-.58A4.1,4.1,0,0,0,869,96.91a25.11,25.11,0,0,0,.62-6.29.61.61,0,0,0-1.21,0,26.73,26.73,0,0,1-.3,4.73,7.68,7.68,0,0,1-.76,2.65,2.81,2.81,0,0,1-2.18,1.21A5.27,5.27,0,0,1,861,97.52a8,8,0,0,1-1.8-4.83,41.49,41.49,0,0,1,0-5.9c.09-2.05.28-4.09.54-6.12s.58-4,1-5.91a12.41,12.41,0,0,1,2-5.07c.92-1.23,3-2.66,4.69-1.71a3,3,0,0,1,1.28,3.84c-.35.6.7,1.14,1,.53Z" transform="translate(0 0)"/><path d="M869.71,92.44a57.27,57.27,0,0,0,0-5.86.55.55,0,0,0-.44-.52,26.6,26.6,0,0,0-5.57-.21c-.78.05-.79,1.11,0,1.06a24.16,24.16,0,0,1,5.24.18l-.44-.51c.07,2,0,3.91,0,5.86C868.45,93.12,869.67,93.12,869.71,92.44Z" transform="translate(0 0)"/><path d="M875.72,90.7c1.75-.32,3.59.33,5.32-.16a4.13,4.13,0,0,0,2.79-2.34,2.81,2.81,0,0,0-1-3.21,5,5,0,0,0-3.6-.85,7.64,7.64,0,0,0-6.29,5.28,8.66,8.66,0,0,0-.23,4.26A4.81,4.81,0,0,0,875,97.21a9.87,9.87,0,0,0,5,.81,7.75,7.75,0,0,0,4.56-1.8.48.48,0,0,0,.08-.67.6.6,0,0,0-.08-.08.68.68,0,0,0-.83,0c-1.83,1.6-4.58,1.8-7,1.21a3.42,3.42,0,0,1-2.64-2.35,7.34,7.34,0,0,1-.26-3.63,6.67,6.67,0,0,1,4.34-5.26,4.74,4.74,0,0,1,3-.08,2.08,2.08,0,0,1,1.54,2.17,2.8,2.8,0,0,1-2.29,2,8.52,8.52,0,0,1-2.47,0,11.39,11.39,0,0,0-2.61.08c-.77.14-.44,1.16.33,1Z" transform="translate(0 0)"/><path d="M908.57,67.45q-1.22,6.66-2.84,13.25A95.43,95.43,0,0,1,902.08,93a26.31,26.31,0,0,1-3.31,6.1c-.4.58.63,1.11,1.06.54a35.39,35.39,0,0,0,5.1-11.3c1.27-4.32,2.37-8.69,3.33-13.07q.81-3.73,1.51-7.5c.12-.66-1-1-1.18-.28Z" transform="translate(0 0)"/><path d="M904.87,84.12c1.53.57,2.94-.23,4.14-1a16.63,16.63,0,0,0,3-2.68A28.48,28.48,0,0,0,916.62,73c.73-1.6,1.37-3.23,2-4.86.25-.64-.93-.92-1.18-.28a48.5,48.5,0,0,1-4.53,9.51,19.26,19.26,0,0,1-3,3.63,14,14,0,0,1-1.9,1.45,3.39,3.39,0,0,1-2.47.75.68.68,0,0,0-.84.19.5.5,0,0,0,.14.68l.08,0Z" transform="translate(0 0)"/><path d="M906.75,84.29a2.57,2.57,0,0,1,2.73-.25,4.17,4.17,0,0,1,1.67,1.88,21.7,21.7,0,0,1,1.72,6c.38,2,.6,4.09,1.93,5.76a4.37,4.37,0,0,0,2.36,1.61,5.7,5.7,0,0,0,3.29-.33c2.16-.78,4.8-2.06,4.53-4.44-.08-.67-1.29-.68-1.22,0a2.45,2.45,0,0,1-1.28,2.31,11.69,11.69,0,0,1-3,1.33,3.27,3.27,0,0,1-3-.35,5.11,5.11,0,0,1-1.57-2.31,52.27,52.27,0,0,1-1.4-6.19,11.59,11.59,0,0,0-2.13-5.1A4.14,4.14,0,0,0,909,82.75a4,4,0,0,0-3.11.79c-.59.44.27,1.19.86.74Z" transform="translate(0 0)"/><path d="M889.7,91c1.76-.31,3.59.33,5.32-.16a4.09,4.09,0,0,0,2.79-2.33,2.81,2.81,0,0,0-1-3.21,5.05,5.05,0,0,0-3.6-.86,7.61,7.61,0,0,0-6.28,5.29,8.55,8.55,0,0,0-.24,4.26A4.83,4.83,0,0,0,889,97.52a9.87,9.87,0,0,0,5,.81,7.75,7.75,0,0,0,4.57-1.79.49.49,0,0,0,.06-.68l-.06-.06a.69.69,0,0,0-.86,0c-1.83,1.61-4.58,1.81-7,1.21a3.44,3.44,0,0,1-2.63-2.35,7.23,7.23,0,0,1-.27-3.63,6.7,6.7,0,0,1,4.34-5.26,4.74,4.74,0,0,1,3-.08,2.08,2.08,0,0,1,1.54,2.17,2.78,2.78,0,0,1-2.28,2,9.29,9.29,0,0,1-2.47,0,10.46,10.46,0,0,0-2.62.08c-.76.13-.44,1.15.33,1Z" transform="translate(0 0)"/></g></g></svg>