<svg xmlns="http://www.w3.org/2000/svg" viewBox="0 0 960 560"><defs><style>.cls-1{fill:#d2a470;}.cls-2{opacity:0.39;}.cls-3{fill:#454545;}.cls-4{fill:#8e0036;}.cls-5{fill:#ff6db1;}.cls-6{fill:#fb008c;}.cls-10,.cls-12,.cls-15,.cls-16,.cls-39,.cls-43,.cls-45,.cls-46,.cls-7{fill:none;}.cls-7{stroke:#fb008c;}.cls-10,.cls-12,.cls-15,.cls-16,.cls-39,.cls-43,.cls-45,.cls-46,.cls-7,.cls-8{stroke-miterlimit:10;}.cls-8{fill:#eed088;stroke:#eeb34f;}.cls-12,.cls-15,.cls-16,.cls-39,.cls-8{stroke-width:2px;}.cls-9{fill:#00ae7c;}.cls-10{stroke:#00747c;stroke-width:5px;}.cls-11{fill:#e80006;}.cls-12{stroke:#870003;}.cls-13{fill:#ff134a;}.cls-14{fill:#c4c4c4;}.cls-15{stroke:#e1000d;}.cls-16{stroke:#0100b4;}.cls-17{fill:#79009e;opacity:0.57;}.cls-17,.cls-38,.cls-39,.cls-40,.cls-41,.cls-42,.cls-43,.cls-44,.cls-45{isolation:isolate;}.cls-18{fill:#60321b;}.cls-19{fill:#d57000;}.cls-20{fill:#ffcc53;}.cls-21{fill:#81000f;}.cls-22{fill:#ff6468;}.cls-23{fill:#2d0036;}.cls-24{fill:#490070;}.cls-25{fill:#b764ff;}.cls-26{fill:#063300;}.cls-27{fill:#26b400;}.cls-28{fill:#d3ffc4;}.cls-29{fill:#b1ff94;}.cls-30{fill:#5a0037;}.cls-31{fill:#db006d;}.cls-32{fill:#d778ad;}.cls-33{fill:#525a00;}.cls-34{fill:#ffe700;}.cls-35{fill:#e8e102;}.cls-36{fill:#f5ffbe;}.cls-37{fill:#fff;}.cls-38,.cls-39{font-size:72px;}.cls-38,.cls-42,.cls-44{fill:#ffed00;}.cls-38,.cls-39,.cls-40{font-family:ComicSansMS, Comic Sans MS;}.cls-39,.cls-43,.cls-45{stroke:#343d91;}.cls-40{font-size:18px;}.cls-42,.cls-43{font-size:36px;}.cls-42,.cls-43,.cls-44,.cls-45{font-family:Impact;}.cls-44,.cls-45{font-size:90px;}.cls-46{stroke:#e20d13;}.cls-47{fill:#e20d13;}</style></defs><g id="Capa_1" data-name="Capa 1"><g id="Capa_3" data-name="Capa 3"><rect class="cls-1" width="960" height="560"/><g class="cls-2"><ellipse class="cls-3" cx="447.5" cy="385" rx="363.5" ry="115"/></g></g><g id="Capa_5" data-name="Capa 5"><path class="cls-4" d="M693.87,196.86,696,371.76s.42,7.05,2.71,7.73,7.62-4.69,8.42-7.42S788,224.55,788,224.55" transform="translate(0 0)"/><path class="cls-5" d="M776.7,80.63c-3.81,1.76-2.8,4.08-7.81,9.59-4.15,4.56-5.64,3.84-7,6.85-2.22,4.9.87,8.76-1.8,10.36-2.05,1.23-4.12-.88-8.57-.54A15.61,15.61,0,0,0,738.59,117c-1,2.83-.09,3.86-1.61,5.46-2.4,2.52-6,1.44-10.79,2.77-5.77,1.61-10.37,5.94-11.79,10.39-1.86,5.83,2.6,9.07,0,12.86-2.17,3.11-6.27,2.51-12.47,4.25-10.13,2.85-18.81,10-21.62,18.39-.54,1.62-3.39,10.14,2.32,17.52a23.92,23.92,0,0,0,8.11,6.35c19.18,9.88,48.92,15.39,74,23.77,20.29,6.77,28.36,12.34,40.7,10,3-.57,12.56-1.78,16.1-8.14,3.7-6.63.27-17.6-7-22.85-2-1.41-5.31-3.22-4.94-4.42s3.3-.23,5.4-1.38c4-2.17,3.44-10.68-1.18-17.18-4.15-5.84-9.57-7.22-9.33-10.67.2-2.76,3.73-2.37,5.59-6.27s.48-9.21-2.52-12.63a18.38,18.38,0,0,0-4.51-3.68c-2.35-1.28-3.21-1-3.86-1.75-2.09-2.44,5.92-6.41,4.63-11.51-1.07-4.26-7.5-4.9-8.45-9.42-.74-3.57,3-4.29,2.42-8.2-.44-2.78-2.5-3.42-7.3-9.08-4.51-5.32-6.76-8-6.77-10.9,0-5.27,6.6-7.16,5.25-9.35C787.77,79.33,781.14,78.59,776.7,80.63Z" transform="translate(0 0)"/><path class="cls-6" d="M737,139.25c-1.29.56,1.9,12,12.65,20.56,8.39,6.68,26.46,15.64,36,17.52,1.1.22,4.09.74,5.47,2.6,1.66,2.25-.75,4.12.68,6.15s4.94,1.21,11.48,3.37c6.32,2.1,7.38,4.37,10.05,4,3.72-.58,5.41-5.58,5.25-9.35-.31-7.24-7.6-12.72-8.52-13.4-6.71-4.9-11.38-3.46-29-7.53-11.18-2.59-18.4-4.26-26.11-8.67C742.82,147.49,738.18,138.74,737,139.25Z" transform="translate(0 0)"/><path class="cls-6" d="M762.19,113c-1.57.54-.52,6.75,4.2,11.14,3.16,2.94,9.23,6.23,12.35,4.62,3.75-1.92.92-9.74.39-9.78s.57,4.85-1.61,5.46C773.68,125.53,764.66,112.15,762.19,113Z" transform="translate(0 0)"/><path class="cls-6" d="M750.16,141.15c-.13.22,6,3.33,11.82,6.44,11.61,6.26,14.88,8.87,21.87,10.4,3.51.77,8.18,1.79,10,0,2.54-2.56-1.23-10.07-6.49-11.81-4-1.32-5.92,1.63-11.94,2.43C763.19,150.2,750.37,140.81,750.16,141.15Z" transform="translate(0 0)"/><path class="cls-6" d="M755.76,181.41c-8.81-3.14-11.72-6.07-26.53-15.73-9.81-6.39-20.41-12.85-19.39-14.62.31-.54,1.45-.2,2.83-1.14,2.24-1.53,1.53-3.95,2.49-4.22,2-.57,8.68,8.86,11.36,12.25,14.85,18.82,42.87,24.6,42.13,26.27C768.29,185,761.62,183.5,755.76,181.41Z" transform="translate(0 0)"/><path class="cls-7" d="M698.53,202.19a104.2,104.2,0,0,0,21.64,28.16c17.39,16.22,36.64,24.12,46.72,27.61" transform="translate(0 0)"/><path class="cls-7" d="M696,225.7c1,4.7,5.17,20.48,22.32,34.3a84.71,84.71,0,0,0,36.25,16.61" transform="translate(0 0)"/><path class="cls-7" d="M698.41,264a79.56,79.56,0,0,0,14.87,17.25,97.56,97.56,0,0,0,30.85,18" transform="translate(0 0)"/><path class="cls-7" d="M694.61,289.66A56.32,56.32,0,0,0,711.5,308.5a69.18,69.18,0,0,0,20.73,10.06" transform="translate(0 0)"/><path class="cls-7" d="M695.13,317.54a30.61,30.61,0,0,0,10.55,15A40.87,40.87,0,0,0,720.94,340" transform="translate(0 0)"/><path class="cls-7" d="M734.54,213.29a149.76,149.76,0,0,1-17.72,13.6,164.75,164.75,0,0,1-22.3,12.24" transform="translate(0 0)"/><path class="cls-7" d="M758.56,216.4a157.44,157.44,0,0,1-17,19.74c-6.76,6.63-11.58,11.36-19.67,16a87.52,87.52,0,0,1-25.21,9.42" transform="translate(0 0)"/><path class="cls-7" d="M780.51,230.78A223.09,223.09,0,0,1,759,249.67a263.46,263.46,0,0,1-63.74,35.72" transform="translate(0 0)"/><path class="cls-7" d="M759.94,275.22a113.09,113.09,0,0,1-20.81,15.66,139.28,139.28,0,0,1-40.78,15.72" transform="translate(0 0)"/><path class="cls-7" d="M738.16,315.35a56.9,56.9,0,0,1-19.74,12,73.35,73.35,0,0,1-22.42,4.3" transform="translate(0 0)"/><path class="cls-7" d="M724.38,341c-2.85,3.13-7.66,7.18-14.69,7.56-7.41.39-13.4-3.49-14.31-2.23s5.27,6.85,11.89,10.43a47.13,47.13,0,0,0,6.62,2.94" transform="translate(0 0)"/><rect class="cls-8" x="221.55" y="165.23" width="9.47" height="65.47"/><rect class="cls-8" x="262.97" y="139.83" width="7.1" height="79.58"/><rect class="cls-8" x="239.89" y="126.29" width="7.69" height="107.23"/><rect class="cls-8" x="197.88" y="136.45" width="9.47" height="97.07"/><rect class="cls-8" x="211.49" y="151.69" width="7.1" height="79.01"/><rect class="cls-8" x="180.13" y="148.86" width="11.24" height="74.5"/><rect class="cls-8" x="204.98" y="153.94" width="9.47" height="65.47"/><rect class="cls-8" x="246.4" y="128.55" width="7.1" height="79.58"/><rect class="cls-8" x="223.32" y="115" width="7.69" height="107.23"/><rect class="cls-8" x="181.32" y="125.16" width="9.47" height="97.07"/><rect class="cls-8" x="194.93" y="140.4" width="7.1" height="79.01"/><rect class="cls-8" x="163.57" y="137.58" width="11.24" height="74.5"/><rect class="cls-8" x="197.29" y="168.62" width="9.47" height="65.47"/><rect class="cls-8" x="238.71" y="143.22" width="7.1" height="79.58"/><rect class="cls-8" x="215.63" y="129.67" width="7.69" height="107.23"/><rect class="cls-8" x="173.63" y="139.83" width="9.47" height="97.07"/><rect class="cls-8" x="187.23" y="155.07" width="7.1" height="79.01"/><rect class="cls-8" x="155.88" y="152.25" width="11.24" height="74.5"/><rect class="cls-8" x="268.88" y="153.94" width="9.47" height="65.47"/><rect class="cls-8" x="276.57" y="150.56" width="7.1" height="79.58"/><rect class="cls-8" x="253.5" y="137.01" width="7.69" height="107.23"/><rect class="cls-8" x="244.03" y="147.17" width="9.47" height="97.07"/><rect class="cls-8" x="230.43" y="147.17" width="7.1" height="79.01"/><rect class="cls-8" x="193.74" y="159.59" width="11.24" height="74.5"/><path class="cls-9" d="M147,181l16,150.7s11.24-6.21,14.79-6.21,34.31.56,40.23,3.38,23.07,5.65,27.81,11.29,26,1.13,26,1.13L289,188.93s-13.61-4.51-17.75,0-12.43,14.11-20.12,17.5-33.13,10.72-35.5,10.72c-3.6,0-30.17-5.08-36.09-7.33-6.26-2.39-16.56-12.42-20.11-18.63s-3-10.16-3-10.16S148.18,178.78,147,181Z" transform="translate(0 0)"/><path class="cls-10" d="M192.56,248.2a186.48,186.48,0,0,0-10.65,26c-3.93,12.12-3.71,15.72-3,18.62,2,7.69,8.58,14.16,16.57,16.93,9,3.13,20.2,1.72,26.62-4.51s5.78-15,4.74-32.74a149.56,149.56,0,0,0-3-22" transform="translate(0 0)"/><rect class="cls-8" x="339.78" y="149.8" width="9.47" height="65.47"/><rect class="cls-8" x="381.2" y="124.4" width="7.1" height="79.58"/><rect class="cls-8" x="358.12" y="110.85" width="7.69" height="107.23"/><rect class="cls-8" x="316.12" y="121.01" width="9.47" height="97.07"/><rect class="cls-8" x="329.72" y="136.25" width="7.1" height="79.01"/><rect class="cls-8" x="298.37" y="133.43" width="11.24" height="74.5"/><rect class="cls-8" x="323.22" y="138.51" width="9.47" height="65.47"/><rect class="cls-8" x="364.63" y="113.11" width="7.1" height="79.58"/><rect class="cls-8" x="341.56" y="99.56" width="7.69" height="107.23"/><rect class="cls-8" x="299.55" y="109.72" width="9.47" height="97.07"/><rect class="cls-8" x="313.16" y="124.96" width="7.1" height="79.01"/><rect class="cls-8" x="281.8" y="122.14" width="11.24" height="74.5"/><rect class="cls-8" x="315.52" y="153.18" width="9.47" height="65.47"/><rect class="cls-8" x="356.94" y="127.78" width="7.1" height="79.58"/><rect class="cls-8" x="333.87" y="114.24" width="7.69" height="107.23"/><rect class="cls-8" x="291.86" y="124.4" width="9.47" height="97.07"/><rect class="cls-8" x="305.47" y="139.64" width="7.1" height="79.01"/><rect class="cls-8" x="274.11" y="136.81" width="11.24" height="74.5"/><rect class="cls-8" x="387.12" y="138.51" width="9.47" height="65.47"/><rect class="cls-8" x="394.81" y="135.12" width="7.1" height="79.58"/><rect class="cls-8" x="371.73" y="121.58" width="7.69" height="107.23"/><rect class="cls-8" x="362.27" y="131.73" width="9.47" height="97.07"/><rect class="cls-8" x="348.66" y="131.73" width="7.1" height="79.01"/><rect class="cls-8" x="311.97" y="144.15" width="11.24" height="74.5"/><path class="cls-11" d="M265.23,165.6l16,150.69s11.24-6.21,14.79-6.21,34.32.57,40.23,3.39,23.08,5.64,27.81,11.29,26,1.12,26,1.12L407.23,173.5s-13.61-4.52-17.75,0-12.42,14.11-20.11,17.5-33.14,10.72-35.5,10.72c-3.6,0-30.18-5.08-36.1-7.34-6.26-2.39-16.56-12.41-20.11-18.62s-3-10.16-3-10.16S266.42,163.34,265.23,165.6Z" transform="translate(0 0)"/><polyline class="cls-12" points="333.17 240.21 320.32 240.59 322.01 249.49 306.61 260.17 311.15 268.99 291.69 287.45 317.05 275.2 316.71 263.71 329.42 258.22 332.01 249.2 340.58 248.94"/><rect class="cls-13" x="568.87" y="26" width="8.49" height="297.82"/><path class="cls-14" d="M510.18,134.78l18.53,202.41s27,9.81,40.93,9.81,47.88-5.35,48.65-8,18.53-204.2,18.53-204.2l-69.5,5.35C555.74,141,510.18,134.78,510.18,134.78Z" transform="translate(0 0)"/><path class="cls-15" d="M514,177.58a165.7,165.7,0,0,0,52.51,9.81c28.58.61,51.65-2.89,66.41-8.92" transform="translate(0 0)"/><path class="cls-16" d="M515.58,193.63c10.11,5.94,31.54,13.9,57.92,14.27,28.09.39,47.71-8.27,57.92-14.27" transform="translate(0 0)"/><path class="cls-15" d="M524.08,286.37a125.8,125.8,0,0,0,43.3,8.91c23.57.55,42.59-2.62,54.77-8.1" transform="translate(0 0)"/><path class="cls-16" d="M525.35,301c8.33,5.4,26,12.63,47.76,13,23.17.36,39.35-7.51,47.77-13" transform="translate(0 0)"/><path class="cls-17" d="M504,130.32a272.57,272.57,0,0,0,64.09,9.81,272.76,272.76,0,0,0,74.91-8V117s-44,8.92-50.19,9.81S508.63,117,506.32,117,504,130.32,504,130.32Z" transform="translate(0 0)"/><path class="cls-17" d="M507.09,117c-4.24-1,4.26-10.61,7.72-17.83a71,71,0,0,1,22.4-26.75,62.72,62.72,0,0,1,22.39-9.81,49.1,49.1,0,0,1,17.76-1.79c4.88.48,8.3,1.64,13.9,3.57,8.77,3,14,4.82,20.08,8.92,10.53,7,16.43,16,19.3,20.51,3.79,5.89,11.83,18.39,8.5,24.07-2.15,3.66-8.13,2.29-10.81,2.68-18.54,2.67-15.45,7.13-48.65,6.24-31.69-.85-39.39-4.46-57.92-7.14C517.93,119.07,511,117.84,507.09,117Z" transform="translate(0 0)"/><rect class="cls-13" x="470.28" y="22.34" width="8.49" height="297.82"/><path class="cls-14" d="M411.59,131.12l18.54,202.41s27,9.81,40.92,9.81,47.88-5.35,48.65-8,18.54-204.19,18.54-204.19l-69.5,5.35C457.15,137.36,411.59,131.12,411.59,131.12Z" transform="translate(0 0)"/><path class="cls-15" d="M415.45,173.92A165.67,165.67,0,0,0,468,183.73c28.58.61,51.65-2.89,66.42-8.92" transform="translate(0 0)"/><path class="cls-16" d="M417,190c10.1,5.94,31.54,13.9,57.91,14.27,28.1.39,47.71-8.27,57.92-14.27" transform="translate(0 0)"/><path class="cls-15" d="M425.49,282.71a125.91,125.91,0,0,0,43.31,8.91c23.57.55,42.59-2.63,54.76-8.1" transform="translate(0 0)"/><path class="cls-17" d="M405.41,126.66a273.17,273.17,0,0,0,64.1,9.81,272.68,272.68,0,0,0,74.9-8V113.29s-44,8.92-50.19,9.81-84.17-9.81-86.49-9.81S405.41,126.66,405.41,126.66Z" transform="translate(0 0)"/><path class="cls-17" d="M408.5,113.29c-4.24-1,4.26-10.61,7.73-17.83a70.86,70.86,0,0,1,22.39-26.75A62.85,62.85,0,0,1,461,58.9a49.16,49.16,0,0,1,17.77-1.79c4.87.48,8.29,1.64,13.9,3.57,8.76,3,13.95,4.82,20.07,8.92,10.54,7.05,16.43,16,19.31,20.51,3.78,5.89,11.82,18.39,8.49,24.07-2.14,3.66-8.13,2.29-10.81,2.68-18.53,2.67-15.44,7.13-48.65,6.24-31.69-.85-39.38-4.46-57.91-7.14C419.34,115.41,412.36,114.18,408.5,113.29Z" transform="translate(0 0)"/><path class="cls-18" d="M399.75,287.59c-.81,1.08-1,4-1.05,5.86a27.89,27.89,0,0,0,.7,7.17c1.28,5.18,25.47,20.89,69.48,23.12,38.4,1.94,51-3,81.71-16,1.16-.49,4.49-1,5.59-3.26.69-1.44,0-2.42-.35-7.16-.25-3.39,0-3.76-.35-4.23-2.48-3-19,6.64-24.79,8.14-29.09,7.5-64,6.17-74.38,3.91C428.23,299.09,403.17,283,399.75,287.59Z" transform="translate(0 0)"/><path class="cls-19" d="M400.62,319.84c3.15-3,16.61,3.79,27.94,7.88,28.35,10.25,63.82,10.79,90.08,3.79,16.24-4.32,31.48-12.21,34.22-9,1.32,1.51-.63,5.11-2.44,8.46a29.62,29.62,0,0,1-6.29,7.88c-7.67,6.87-18.49,9.88-22,10.8-21.1,5.56-41.38,5.51-50.28,5.25-11.29-.31-27.45-1.6-43.57-6.63C424.7,347.16,415.11,344,408,337.1a26.42,26.42,0,0,1-5.59-7.59C401.18,327,398.66,321.73,400.62,319.84Z" transform="translate(0 0)"/><path class="cls-18" d="M398.88,307.29c-.81,1-1,3.62-1.05,5.25a22.44,22.44,0,0,0,.7,6.42c1.28,4.65,25.47,18.73,69.48,20.73,38.4,1.74,51-2.67,81.71-14.31,1.16-.43,4.49-.87,5.59-2.91.69-1.3,0-2.18-.35-6.42-.25-3.05,0-3.37-.35-3.8-2.48-2.7-19,5.95-24.79,7.3-29.09,6.72-64,5.53-74.38,3.5C427.36,317.6,402.3,303.17,398.88,307.29Z" transform="translate(0 0)"/><path class="cls-20" d="M399,304.81c0,5.47,2.92,17.93,5.89,18.5,2.65.5.38-11.31,5.3-9.54,11.19,4,32.84,8.6,49.17,9.77,43.61,3.11,88.8-1.77,94.81-13.62.33-.65,1.43-2.83.36-3.8-2.75-2.46-15.56,6.8-28.3,8.37-22.28,2.74-38.2,4.59-63.49,2.14-34.34-3.33-47.69-10.07-53.21-10.07C407.66,306.56,398.68,303.61,399,304.81Z" transform="translate(0 0)"/><path class="cls-20" d="M555.44,288.48c0,3.07-12.91,11.39-35.75,17.26-11.39,2.93-27.76,4.67-42.83,4.67-3.76,0-18.95-2-33-5.19-22.81-5.15-48.39-14.47-48.39-16.74,0-4.2,13,.24,33.35,4,15.31,2.82,33,7.72,46.62,7.75,21.17,0,40.64-4,44.22-4.44C544,292.47,555.44,283.93,555.44,288.48Z" transform="translate(0 0)"/><path class="cls-19" d="M412.35,243.68a45.11,45.11,0,0,0-10.47,9.26c-.76.95-12.62,16.37-6.64,28.68,5.63,11.58,24.1,14.4,43.3,17.33,9.2,1.41,21.27,1.34,45.39,1.2,26.31-.16,34.28-1,42.6-2.69,13.1-2.65,26.19-5.47,31.77-14.94,3.7-6.28,2.5-12.75,2.1-14.94-2-10.72-10.8-17.5-15.37-20.91-29.82-22.31-79.25-16.54-98.11-14.34C437.57,233.42,424.41,235.68,412.35,243.68Z" transform="translate(0 0)"/><path class="cls-18" d="M590.84,324.54c-.81,1.08-1,4-1.05,5.86a27.89,27.89,0,0,0,.7,7.17c1.28,5.18,25.47,20.89,69.48,23.12,38.4,1.94,51-3,81.71-16,1.16-.49,4.49-1,5.59-3.26.69-1.44,0-2.42-.35-7.16-.25-3.39,0-3.76-.35-4.23-2.48-3-19,6.64-24.79,8.14-29.09,7.5-63.95,6.17-74.38,3.91C619.32,336,594.26,320,590.84,324.54Z" transform="translate(0 0)"/><path class="cls-21" d="M591.72,356.79c3.14-3,16.6,3.78,27.93,7.88,28.35,10.25,63.82,10.79,90.08,3.79,16.24-4.32,31.48-12.21,34.22-9,1.32,1.51-.63,5.11-2.44,8.46a29.62,29.62,0,0,1-6.29,7.88c-7.67,6.87-18.49,9.88-22,10.8-21.1,5.56-41.38,5.5-50.28,5.25-11.29-.32-27.45-1.6-43.57-6.63-3.57-1.11-13.17-4.29-20.33-11.17a26.42,26.42,0,0,1-5.59-7.59C592.27,364,589.75,358.68,591.72,356.79Z" transform="translate(0 0)"/><path class="cls-18" d="M590,344.24c-.81,1-1,3.62-1,5.25a22.44,22.44,0,0,0,.7,6.42c1.28,4.65,25.47,18.73,69.48,20.73,38.4,1.74,51-2.68,81.71-14.31,1.16-.43,4.49-.87,5.59-2.91.69-1.3,0-2.18-.35-6.43-.25-3,0-3.37-.35-3.79-2.48-2.7-19,5.95-24.79,7.3-29.12,6.72-63.94,5.5-74.41,3.5C618.46,354.55,593.39,340.12,590,344.24Z" transform="translate(0 0)"/><path class="cls-22" d="M590.06,341.76c0,5.47,2.92,17.93,5.89,18.5,2.65.5.38-11.31,5.3-9.54,11.19,4,32.84,8.6,49.18,9.77,43.6,3.11,88.79-1.77,94.8-13.62.33-.65,1.43-2.83.36-3.8-2.75-2.46-15.56,6.8-28.3,8.37-22.28,2.74-38.2,4.59-63.49,2.14-34.34-3.33-47.69-10.07-53.21-10.07C598.75,343.51,589.77,340.56,590.06,341.76Z" transform="translate(0 0)"/><path class="cls-22" d="M746.53,325.43c0,3.07-12.91,11.39-35.75,17.26-11.39,2.93-27.76,4.67-42.83,4.67-3.76,0-19-2-33-5.19-22.81-5.15-48.39-14.47-48.39-16.74,0-4.2,13,.24,33.35,4,15.31,2.82,33,7.72,46.62,7.75,21.17,0,40.64-3.95,44.22-4.44C735.06,329.42,746.53,320.88,746.53,325.43Z" transform="translate(0 0)"/><path class="cls-21" d="M603.44,280.63A45.19,45.19,0,0,0,593,289.89c-.76.95-12.62,16.37-6.64,28.68,5.63,11.58,24.1,14.4,43.3,17.33,9.2,1.41,21.27,1.34,45.39,1.2,26.31-.16,34.29-1,42.6-2.69,13.1-2.65,26.19-5.47,31.77-14.94,3.7-6.28,2.5-12.75,2.1-14.94-2-10.72-10.8-17.5-15.37-20.91-29.82-22.31-79.24-16.54-98.11-14.34C628.66,270.37,615.5,272.63,603.44,280.63Z" transform="translate(0 0)"/><path class="cls-23" d="M204.85,334.08c-.81,1.08-1,4-1,5.86a27.81,27.81,0,0,0,.7,7.16C205.78,352.29,230,368,274,370.22c38.4,1.95,51-3,81.71-16,1.16-.49,4.49-1,5.59-3.26.69-1.44,0-2.43-.35-7.16-.25-3.39,0-3.76-.35-4.23-2.48-3-19,6.64-24.79,8.14-29.09,7.49-64,6.16-74.38,3.9C233.33,345.58,208.27,329.49,204.85,334.08Z" transform="translate(0 0)"/><path class="cls-24" d="M205.73,366.33c3.14-3.05,16.6,3.78,27.93,7.88C262,384.46,297.48,385,323.74,378c16.26-4.33,31.48-12.21,34.26-9,1.32,1.52-.63,5.12-2.44,8.47a29.62,29.62,0,0,1-6.29,7.88c-7.67,6.87-18.49,9.87-22,10.8-21.1,5.56-41.38,5.5-50.28,5.25-11.29-.32-27.45-1.6-43.57-6.63-3.57-1.11-13.17-4.29-20.33-11.17A26.75,26.75,0,0,1,207.5,376C206.28,373.48,203.76,368.22,205.73,366.33Z" transform="translate(0 0)"/><path class="cls-23" d="M204,353.78c-.81,1-1,3.61-1,5.25a22.8,22.8,0,0,0,.7,6.42c1.28,4.65,25.47,18.72,69.48,20.72,38.4,1.75,51-2.67,81.71-14.3,1.16-.44,4.49-.87,5.59-2.92.69-1.29,0-2.17-.35-6.42-.25-3,0-3.37-.35-3.79-2.48-2.7-19,5.95-24.79,7.29-29.09,6.72-63.95,5.53-74.38,3.51C232.47,364.08,207.4,349.66,204,353.78Z" transform="translate(0 0)"/><path class="cls-25" d="M204.07,351.3c0,5.46,2.92,17.93,5.89,18.49,2.65.51.38-11.31,5.3-9.53,11.2,4,32.84,8.6,49.18,9.76,43.6,3.12,88.79-1.76,94.8-13.62.33-.65,1.43-2.82.36-3.79-2.75-2.47-15.56,6.8-28.3,8.37-22.28,2.74-38.2,4.59-63.49,2.14-34.34-3.33-47.69-10.07-53.21-10.07C212.76,353.05,203.78,350.1,204.07,351.3Z" transform="translate(0 0)"/><path class="cls-25" d="M360.54,335c0,3.07-12.91,11.39-35.75,17.26C313.4,355.15,297,356.9,282,356.9c-3.76,0-18.95-2-33-5.19-22.81-5.15-48.39-14.47-48.39-16.74,0-4.2,13,.24,33.35,4,15.31,2.82,33,7.71,46.62,7.74,21.17.05,40.64-3.94,44.22-4.43C349.07,339,360.54,330.42,360.54,335Z" transform="translate(0 0)"/><path class="cls-24" d="M217.45,290.17A45,45,0,0,0,207,299.43c-.76.95-12.62,16.36-6.64,28.68,5.63,11.58,24.1,14.4,43.3,17.33,9.2,1.4,21.27,1.33,45.39,1.19,26.31-.15,34.29-1,42.6-2.69,13.1-2.64,26.19-5.46,31.77-14.93,3.7-6.28,2.5-12.75,2.1-14.94-2-10.72-10.8-17.5-15.36-20.92-29.83-22.3-79.25-16.54-98.12-14.34C242.67,279.91,229.51,282.16,217.45,290.17Z" transform="translate(0 0)"/><path class="cls-26" d="M284,387.34c-.8,1.08-.95,4-1,5.86a27.81,27.81,0,0,0,.69,7.16c1.29,5.19,25.48,20.89,69.49,23.12,38.39,1.95,51-3,81.7-16,1.16-.49,4.49-1,5.59-3.26.69-1.44,0-2.43-.35-7.16-.25-3.39,0-3.76-.35-4.23-2.47-3-19,6.64-24.79,8.14-29.09,7.49-63.94,6.16-74.37,3.9C312.45,398.84,287.39,382.75,284,387.34Z" transform="translate(0 0)"/><path class="cls-27" d="M284.84,419.59c3.15-3,16.61,3.78,27.93,7.88,28.35,10.25,63.82,10.79,90.09,3.79,16.24-4.33,31.47-12.21,34.22-9.05,1.31,1.52-.63,5.12-2.45,8.47a29.74,29.74,0,0,1-6.28,7.88c-7.67,6.87-18.49,9.87-22,10.8-21.1,5.56-41.37,5.5-50.28,5.25-11.29-.32-27.44-1.6-43.57-6.63-3.57-1.11-13.16-4.29-20.33-11.17a26.39,26.39,0,0,1-5.58-7.59C285.4,426.74,282.88,421.48,284.84,419.59Z" transform="translate(0 0)"/><path class="cls-26" d="M283.09,407c-.8,1-.95,3.61-1,5.25a22.43,22.43,0,0,0,.69,6.42c1.29,4.65,25.48,18.73,69.49,20.72,38.39,1.75,51-2.67,81.7-14.3,1.16-.44,4.49-.87,5.59-2.92.7-1.29,0-2.17-.35-6.42-.25-3,0-3.37-.35-3.79-2.47-2.7-19,6-24.79,7.29-29.08,6.72-63.94,5.53-74.37,3.51C311.58,417.34,286.52,402.92,283.09,407Z" transform="translate(0 0)"/><path class="cls-28" d="M283.18,404.56c0,5.46,2.92,17.93,5.89,18.49,2.65.51.38-11.31,5.31-9.53,11.19,4,32.83,8.6,49.17,9.76,43.61,3.12,88.8-1.76,94.81-13.62.32-.65,1.43-2.82.35-3.79-2.75-2.47-15.55,6.8-28.29,8.37-22.29,2.74-38.2,4.59-63.49,2.14-34.35-3.33-47.69-10.07-53.22-10.07C291.87,406.31,282.89,403.36,283.18,404.56Z" transform="translate(0 0)"/><path class="cls-29" d="M439.65,388.23c0,3.07-12.9,11.39-35.74,17.26-11.4,2.92-27.77,4.67-42.84,4.67-3.75,0-18.95-2-33-5.19-22.81-5.15-48.38-14.47-48.38-16.74,0-4.2,13,.24,33.35,4,15.31,2.82,33,7.71,46.61,7.74,21.18,0,40.64-3.94,44.23-4.43C428.18,392.22,439.65,383.68,439.65,388.23Z" transform="translate(0 0)"/><path class="cls-27" d="M296.57,343.43a45,45,0,0,0-10.48,9.26c-.75.95-12.62,16.36-6.63,28.68,5.62,11.58,24.1,14.4,43.29,17.33,9.21,1.4,21.27,1.33,45.39,1.19,26.31-.15,34.29-1,42.6-2.69,13.1-2.64,26.19-5.46,31.78-14.93,3.7-6.28,2.5-12.75,2.09-14.94-2-10.72-10.79-17.5-15.36-20.91-29.82-22.31-79.25-16.55-98.12-14.35C321.78,333.17,308.62,335.42,296.57,343.43Z" transform="translate(0 0)"/><path class="cls-30" d="M519.73,386.17c-.81,1.08-1,4-1.05,5.86a27.89,27.89,0,0,0,.7,7.17c1.28,5.18,25.47,20.89,69.48,23.12,38.39,1.94,51-3,81.71-16,1.16-.49,4.49-1,5.58-3.26.7-1.44,0-2.43-.34-7.16-.26-3.39,0-3.76-.35-4.23-2.48-3-19,6.64-24.79,8.14-29.09,7.49-63.95,6.16-74.38,3.9C548.21,397.67,523.15,381.58,519.73,386.17Z" transform="translate(0 0)"/><path class="cls-31" d="M520.6,418.42c3.15-3,16.61,3.78,27.94,7.88,28.34,10.25,63.82,10.79,90.08,3.79,16.24-4.32,31.48-12.21,34.22-9,1.31,1.52-.63,5.12-2.44,8.47a29.62,29.62,0,0,1-6.29,7.88c-7.67,6.87-18.49,9.87-22,10.8-21.09,5.56-41.37,5.5-50.28,5.25-11.28-.32-27.44-1.6-43.56-6.63-3.58-1.11-13.17-4.29-20.33-11.17a26.1,26.1,0,0,1-5.59-7.59C521.16,425.57,518.64,420.31,520.6,418.42Z" transform="translate(0 0)"/><path class="cls-30" d="M518.86,405.87c-.81,1-1,3.62-1.05,5.25a22.44,22.44,0,0,0,.7,6.42c1.28,4.65,25.47,18.73,69.48,20.73,38.4,1.74,51-2.68,81.71-14.31,1.16-.44,4.49-.87,5.59-2.92.69-1.29,0-2.17-.35-6.42-.25-3,0-3.37-.35-3.79-2.48-2.7-19,5.95-24.79,7.3-29.09,6.72-63.95,5.52-74.38,3.5C547.34,416.17,522.28,401.75,518.86,405.87Z" transform="translate(0 0)"/><path class="cls-32" d="M519,403.39c0,5.47,2.92,17.93,5.89,18.5,2.64.5.37-11.31,5.3-9.54,11.19,4,32.84,8.6,49.17,9.77,43.61,3.11,88.8-1.77,94.81-13.63.33-.64,1.43-2.82.35-3.79-2.74-2.46-15.55,6.8-28.29,8.37-22.28,2.74-38.2,4.59-63.49,2.14-34.34-3.33-47.69-10.07-53.21-10.07C527.64,405.14,518.66,402.19,519,403.39Z" transform="translate(0 0)"/><path class="cls-32" d="M675.41,387.06c0,3.07-12.9,11.39-35.74,17.26-11.39,2.92-27.76,4.67-42.83,4.67-3.76,0-19-2-33-5.19-22.81-5.15-48.39-14.47-48.39-16.74,0-4.2,13,.24,33.35,4,15.31,2.82,33,7.71,46.62,7.74,21.17,0,40.64-3.94,44.22-4.43C664,391.05,675.41,382.51,675.41,387.06Z" transform="translate(0 0)"/><path class="cls-31" d="M532.33,342.26a45.39,45.39,0,0,0-10.48,9.26c-.75,1-12.61,16.36-6.63,28.68,5.63,11.58,24.1,14.4,43.3,17.33,9.2,1.4,21.26,1.33,45.39,1.19,26.31-.15,34.28-1,42.6-2.68,13.09-2.65,26.19-5.47,31.77-14.94,3.7-6.28,2.5-12.75,2.1-14.94-2-10.72-10.8-17.5-15.37-20.91-29.82-22.31-79.25-16.54-98.11-14.34C557.55,332,544.39,334.25,532.33,342.26Z" transform="translate(0 0)"/><path class="cls-33" d="M400.57,409.85c-.81,1.08-.95,4-1.05,5.86a27.89,27.89,0,0,0,.7,7.17c1.29,5.18,25.48,20.88,69.49,23.11,38.39,1.95,51-3,81.7-15.95,1.16-.49,4.49-1,5.59-3.26.69-1.44,0-2.43-.35-7.16-.25-3.39,0-3.76-.35-4.23-2.48-3-19,6.64-24.79,8.14-29.09,7.49-63.95,6.16-74.37,3.9C429.06,421.35,404,405.26,400.57,409.85Z" transform="translate(0 0)"/><path class="cls-34" d="M401.45,442.1c3.15-3,16.61,3.78,27.93,7.88,28.35,10.25,63.82,10.79,90.09,3.79,16.23-4.33,31.47-12.21,34.21-9,1.32,1.52-.63,5.12-2.44,8.47a29.74,29.74,0,0,1-6.28,7.88c-7.67,6.87-18.5,9.87-22,10.8-21.1,5.56-41.38,5.5-50.28,5.25-11.29-.32-27.44-1.6-43.57-6.63-3.57-1.11-13.16-4.29-20.33-11.17a26.75,26.75,0,0,1-5.59-7.59C402,449.25,399.49,444,401.45,442.1Z" transform="translate(0 0)"/><path class="cls-33" d="M399.7,429.55c-.81,1-.95,3.61-1.05,5.25a22.8,22.8,0,0,0,.7,6.42c1.29,4.65,25.48,18.73,69.49,20.72,38.39,1.75,51-2.67,81.7-14.3,1.16-.44,4.49-.87,5.59-2.92.69-1.29,0-2.17-.35-6.42-.25-3,0-3.37-.35-3.79-2.48-2.7-19,5.95-24.79,7.3-29.09,6.72-63.94,5.52-74.37,3.5C428.19,439.85,403.13,425.43,399.7,429.55Z" transform="translate(0 0)"/><path class="cls-35" d="M399.79,427.07c0,5.47,2.92,17.93,5.89,18.5,2.65.5.38-11.32,5.3-9.54,11.2,4,32.84,8.6,49.18,9.77,43.6,3.11,88.79-1.77,94.8-13.63.33-.64,1.44-2.82.36-3.79-2.75-2.46-15.55,6.8-28.3,8.37-22.28,2.74-38.19,4.59-63.49,2.14-34.34-3.33-47.68-10.07-53.21-10.07C408.48,428.82,399.5,425.87,399.79,427.07Z" transform="translate(0 0)"/><path class="cls-36" d="M561.09,410.71c0,3-14,11.24-38.82,17-12.37,2.89-30.15,4.61-46.52,4.61-4.08,0-20.58-2-35.81-5.11-24.77-5.09-52.55-14.28-52.55-16.52,0-4.14,14.11.25,36.22,3.94,16.63,2.78,35.86,7.61,50.63,7.64,23,0,44.14-3.89,48-4.38C548.64,414.65,561.09,406.23,561.09,410.71Z" transform="translate(0 0)"/><path class="cls-34" d="M413.85,367.92a45.11,45.11,0,0,0-10.47,9.26c-.75.95-12.62,16.36-6.64,28.68,5.63,11.58,24.11,14.4,43.3,17.33,9.21,1.4,21.27,1.33,45.39,1.19,26.31-.15,34.29-1,42.6-2.69,13.1-2.64,26.19-5.46,31.78-14.93,3.7-6.28,2.5-12.75,2.09-14.94-2-10.72-10.8-17.5-15.36-20.91-29.83-22.31-79.25-16.55-98.12-14.35C439.07,357.66,425.91,359.91,413.85,367.92Z" transform="translate(0 0)"/><ellipse class="cls-37" cx="423.44" cy="251.13" rx="2.46" ry="2.44"/><ellipse class="cls-37" cx="449.66" cy="260.07" rx="3.28" ry="3.25"/><ellipse class="cls-37" cx="480.8" cy="261.69" rx="3.28" ry="3.25"/><ellipse class="cls-37" cx="510.29" cy="261.69" rx="3.28" ry="3.25"/><ellipse class="cls-37" cx="534.05" cy="252.75" rx="3.28" ry="3.25"/><ellipse class="cls-37" cx="226.8" cy="299.07" rx="2.46" ry="2.44"/><ellipse class="cls-37" cx="253.02" cy="308.01" rx="3.28" ry="3.25"/><ellipse class="cls-37" cx="284.15" cy="309.64" rx="3.28" ry="3.25"/><ellipse class="cls-37" cx="313.65" cy="309.64" rx="3.28" ry="3.25"/><ellipse class="cls-37" cx="337.41" cy="300.7" rx="3.28" ry="3.25"/><ellipse class="cls-37" cx="306.27" cy="348.64" rx="2.46" ry="2.44"/><ellipse class="cls-37" cx="332.49" cy="357.58" rx="3.28" ry="3.25"/><ellipse class="cls-37" cx="363.63" cy="359.21" rx="3.28" ry="3.25"/><ellipse class="cls-37" cx="393.12" cy="359.21" rx="3.28" ry="3.25"/><ellipse class="cls-37" cx="416.89" cy="350.27" rx="3.28" ry="3.25"/><ellipse class="cls-37" cx="612.71" cy="285.26" rx="2.46" ry="2.44"/><ellipse class="cls-37" cx="638.93" cy="294.2" rx="3.28" ry="3.25"/><ellipse class="cls-37" cx="670.07" cy="295.82" rx="3.28" ry="3.25"/><ellipse class="cls-37" cx="699.56" cy="295.82" rx="3.28" ry="3.25"/><ellipse class="cls-37" cx="723.32" cy="286.88" rx="3.28" ry="3.25"/><ellipse class="cls-37" cx="541.43" cy="347.02" rx="2.46" ry="2.44"/><ellipse class="cls-37" cx="567.65" cy="355.96" rx="3.28" ry="3.25"/><ellipse class="cls-37" cx="598.78" cy="357.58" rx="3.28" ry="3.25"/><ellipse class="cls-37" cx="628.28" cy="357.58" rx="3.28" ry="3.25"/><ellipse class="cls-37" cx="652.04" cy="348.64" rx="3.28" ry="3.25"/><ellipse class="cls-37" cx="425.08" cy="374.65" rx="2.46" ry="2.44"/><ellipse class="cls-37" cx="451.3" cy="383.59" rx="3.28" ry="3.25"/><ellipse class="cls-37" cx="482.43" cy="385.21" rx="3.28" ry="3.25"/><ellipse class="cls-37" cx="511.93" cy="385.21" rx="3.28" ry="3.25"/><ellipse class="cls-37" cx="535.69" cy="376.27" rx="3.28" ry="3.25"/></g><g id="Capa_4" data-name="Capa 4"><text class="cls-38" transform="translate(32 90)">Combo SpongeBob</text><text class="cls-39" transform="translate(32 90)">Combo SpongeBob</text><text class="cls-40" transform="translate(125.46 540.79)">Combo familiar, incluye 6 Coloburgers, 2 bebidad grandes, helado y papas incluidas.</text><g class="cls-41"><text class="cls-42" transform="translate(32.39 154.14)"><tspan xml:space="preserve">Solo hoy no te pierdad esta promocion  !!!</tspan></text><text class="cls-43" transform="translate(32.39 154.14)"><tspan xml:space="preserve">Solo hoy no te pierdad esta promocion  !!!</tspan></text></g><text class="cls-44" transform="translate(676.71 446.14)">$ 235</text><text class="cls-45" transform="translate(676.71 446.14)">$ 235</text></g></g><g id="Capa_2" data-name="Capa 2"><g id="Capa_2-2" data-name="Capa 2"><path class="cls-46" d="M35.73,443.37s9.1-9.12,10.71-13.11,8.84-20.9,8.3-23.18,34-6.47,34-6.47v18.25" transform="translate(0 0)"/><path class="cls-47" d="M33.32,415.52l3.75,3.94s71.76-10.13,75-11.81S34.92,417.77,33.32,415.52Z" transform="translate(0 0)"/><path class="cls-47" d="M128.27,395.21c4-2.28-95.07,13.69-97.06,10.65l4.62,5.32" transform="translate(0 0)"/></g><g id="Capa_3-2" data-name="Capa 3"><path class="cls-47" d="M73.69,432.27c4.08.17,8.16.42,12.23.72l3.11.26c1,0,2,.13,2.93.26.72.14,1.55.7,1.16,1.4-.22.41-.86.54-1.33.6-1.05.12-2.15.1-3.21.14l-3.45.14a.51.51,0,1,0,0,1l3.45-.14c1.09-.05,2.19,0,3.27-.15a3.53,3.53,0,0,0,2-.7,1.63,1.63,0,0,0,.43-1.93,2.7,2.7,0,0,0-2.2-1.37c-1.11-.16-2.25-.22-3.37-.31q-3.48-.3-7-.52-4-.26-8-.42c-.76,0-.76,1,0,1Z" transform="translate(0 0)"/><path class="cls-47" d="M91.79,433.6A5.92,5.92,0,0,0,97.18,430a7.43,7.43,0,0,0-.4-7,11.31,11.31,0,0,0-5.9-4.75C87.65,417,84.11,417,80.65,417c-3.76,0-7.53.05-11.29.29A61.56,61.56,0,0,0,59,418.68,20.34,20.34,0,0,0,51,422.32c-2.26,1.81-3.85,4.3-3.33,7a4.1,4.1,0,0,0,2.21,2.93,10.09,10.09,0,0,0,4.55.54l11.48-.13,2.82,0a.51.51,0,1,0,0-1l-10.6.13c-1.7,0-3.4.06-5.11.05-1.33,0-2.76-.17-3.54-1.19-1.61-2.07-.5-4.82,1.18-6.56a16.43,16.43,0,0,1,7-4,47,47,0,0,1,9-1.59c3.46-.33,6.94-.43,10.42-.47a65.5,65.5,0,0,1,9.91.23,12.66,12.66,0,0,1,7.13,3.16,7.51,7.51,0,0,1,2.52,6.11,5.81,5.81,0,0,1-3.48,4.87,3.79,3.79,0,0,1-1.42.2c-.76,0-.76,1,0,1Z" transform="translate(0 0)"/><path class="cls-47" d="M51.63,432.72a.77.77,0,0,0-.61-1,1,1,0,0,0-1,.31,2.46,2.46,0,0,0-.51,2.06,4.18,4.18,0,0,0,3.29,3.25,14.37,14.37,0,0,0,2.86.38c1.2.08,2.4.14,3.59.19,2.37.09,4.75.1,7.11.07,2.73,0,5.46-.15,8.19-.3.75-.05.76-1.05,0-1-3.89.22-7.79.34-11.69.31-1.95,0-3.9-.07-5.84-.18-1.6-.09-3.52-.05-4.91-.83a2.86,2.86,0,0,1-1.32-1.56,2.32,2.32,0,0,1-.14-.9,1.64,1.64,0,0,1,.1-.49.52.52,0,0,1,.06-.16,1,1,0,0,1,.08-.14c.12-.15,0-.26-.4-.33-.14.63,1,.9,1.15.27Z" transform="translate(0 0)"/><path class="cls-47" d="M50.23,439.54a2.06,2.06,0,0,0,.05,2.27,3,3,0,0,0,2.44,1.28,19.64,19.64,0,0,0,3.59-.32l4-.46,8.15-1,3.89-.45,1.94-.23a8.65,8.65,0,0,1,2-.17c.62.08.87.62,1.09,1.06s.52,1.11.78,1.67l1.76,3.71a.62.62,0,0,0,.75.34.66.66,0,0,0,.24-.11,24.9,24.9,0,0,1,6.86-4.12c2.07-.82,4.56-1.34,5.54-3.3.29-.59-.72-1.1-1-.51-.94,1.89-3.6,2.3-5.56,3.12a26.1,26.1,0,0,0-6.65,4.1l1,.22-1.5-3.17a31,31,0,0,0-1.38-2.84,2.5,2.5,0,0,0-2.53-1.14c-1.26.1-2.52.29-3.78.43l-15.54,1.82-2.29.27a4.84,4.84,0,0,1-1.74,0c-.87-.24-1.5-1.22-1-1.95a.47.47,0,0,0-.25-.68.64.64,0,0,0-.77.18Z" transform="translate(0 0)"/><path class="cls-47" d="M50.32,446.05a6.76,6.76,0,0,0-.06,3.1.58.58,0,0,0,.57.37q9.57.36,19.16.25c6.36-.07,12.73-.24,19.07-.67a5.32,5.32,0,0,0,3.62-1.27,2.59,2.59,0,0,0,.51-3.08c-.33-.59-1.34-.08-1,.5a1.83,1.83,0,0,1-.78,2.27c-1,.65-2.44.59-3.62.67-3,.16-6,.3-9,.4q-8.9.3-17.8.19c-3.39,0-6.78-.12-10.17-.25l.58.37a5.72,5.72,0,0,1,0-2.57c.17-.63-1-.9-1.13-.27Z" transform="translate(0 0)"/><path class="cls-47" d="M50.66,452.61c.3,1.26-.22,2.54-.2,3.81a2.82,2.82,0,0,0,2.22,2.78,16.24,16.24,0,0,0,2.41.33c1,.11,2,.2,3,.28q2.93.24,5.87.33A150,150,0,0,0,87.26,459c1.72-.22,3.54-.61,4.7-1.82a3.68,3.68,0,0,0,.93-4c-.27-.6-1.41-.34-1.13.26a2.83,2.83,0,0,1-.77,3.15A6.89,6.89,0,0,1,87,458c-3.6.46-7.21.77-10.83,1a130,130,0,0,1-21.61-.51,5.14,5.14,0,0,1-2.28-.54,1.7,1.7,0,0,1-.68-1.57c0-1.34.48-2.68.15-4-.15-.64-1.29-.37-1.14.26Z" transform="translate(0 0)"/><path d="M110.91,427l-8.72,20.52-2.46,5.8c-.26.61.88.87,1.14.26L109.59,433l2.46-5.79c.26-.61-.88-.88-1.14-.27Z" transform="translate(0 0)"/><path d="M104.27,434.13s.2,0,.18.05,0,0,0,0,0-.32,0-.34a1.77,1.77,0,0,1,.18-.77,11.71,11.71,0,0,1,1.41-2,20.67,20.67,0,0,1,12.14-7.18,18.11,18.11,0,0,1,5.35-.2l-.44-.49a13.7,13.7,0,0,1-3.54,7.34,37.29,37.29,0,0,1-7.14,5.81l.83.71a14.67,14.67,0,0,1,9.49-2.74c1.32.11,2.63.73,2.67,2a4.09,4.09,0,0,1-.79,2.19c-.39.64-.84,1.27-1.29,1.89a36.06,36.06,0,0,1-13.6,11.23,33.68,33.68,0,0,1-9.45,2.89c-.74.12-.42,1.09.32,1a35.81,35.81,0,0,0,17.31-7.83,37,37,0,0,0,6.61-7.06c.93-1.3,2.17-2.84,2-4.44a3.26,3.26,0,0,0-2.85-2.71,13.06,13.06,0,0,0-5.7.3,16.39,16.39,0,0,0-5.61,2.6c-.59.42.25,1.11.84.71a38.46,38.46,0,0,0,7.41-6.12,14.43,14.43,0,0,0,3.63-7.73.52.52,0,0,0-.43-.49,21.55,21.55,0,0,0-19.45,8.67,4.39,4.39,0,0,0-1.13,2.39c0,.73.4,1.51,1.38,1.34.75-.12.43-1.09-.31-1Z" transform="translate(0 0)"/><path d="M129.54,435.1a48.93,48.93,0,0,0-1.35,7.35c-.13,1.24-.23,2.49-.24,3.73a5.29,5.29,0,0,0,.78,3.25,2.72,2.72,0,0,0,2.8,1.14,5.05,5.05,0,0,0,2.72-1.8,10.24,10.24,0,0,0,2.13-6c.2-2.81,0-5.64-.09-8.44,0-.65-1.18-.65-1.18,0,0,2.21.15,4.43.15,6.65a12.55,12.55,0,0,1-1.18,6.1c-.61,1.11-2.79,3.78-4.25,2a4.43,4.43,0,0,1-.69-3q0-1.62.21-3.24a46.83,46.83,0,0,1,1.34-7.41c.16-.63-1-.9-1.14-.27Z" transform="translate(0 0)"/><path d="M138.86,435.73l.55,12.66a.56.56,0,0,0,.59.51.55.55,0,0,0,.59-.51,45.78,45.78,0,0,1,1.18-7.43,13.92,13.92,0,0,1,3.36-6.31c.49-.49-.34-1.21-.83-.71-3.91,3.94-4.41,9.53-4.89,14.45h1.18L140,435.73c0-.64-1.21-.65-1.18,0Z" transform="translate(0 0)"/><path d="M152.32,433.22c-.87-1-2.22-.07-2.8.65a13.25,13.25,0,0,0-1.79,3.13,16,16,0,0,0-1.26,7.17c.08,1.41.78,4.47,3.23,3.92a3.42,3.42,0,0,0,2.13-2.21,16.55,16.55,0,0,0,1-3.61,42.12,42.12,0,0,0,.39-8.62h-1.18A92.27,92.27,0,0,1,151,453.28c-.24,1.65-.5,3.3-.77,4.94a35.33,35.33,0,0,1-.84,4.57c-.33,1.1-1.06,2.68-2.57,2.9s-2.36-1.22-2.76-2.15a6.14,6.14,0,0,1,2.23-7.23c.59-.41-.25-1.11-.84-.71a7.06,7.06,0,0,0-2.84,7.07,5.16,5.16,0,0,0,2.16,3.49,3.42,3.42,0,0,0,4-.3,6.57,6.57,0,0,0,2-4.11c.32-1.73.58-3.46.85-5.19.56-3.58,1.07-7.17,1.4-10.77a75.61,75.61,0,0,0,.22-12.13c0-.64-1.18-.65-1.18,0a55.54,55.54,0,0,1-.1,6.45,21.12,21.12,0,0,1-.52,3.15,10.77,10.77,0,0,1-1.05,2.87c-.28.49-.93,1.34-1.66.87a3,3,0,0,1-1-2,10.44,10.44,0,0,1-.07-2.9,15.16,15.16,0,0,1,.56-3.05A14.67,14.67,0,0,1,149.5,436a12.62,12.62,0,0,1,.94-1.47,2.14,2.14,0,0,1,.58-.54c.2-.12.29-.18.45,0,.46.51,1.29-.21.83-.71Z" transform="translate(0 0)"/><path d="M159,440.88a8,8,0,0,0,3.93-1.39,5.54,5.54,0,0,0,2.46-3.28,2.76,2.76,0,0,0-1.68-2.91,3.71,3.71,0,0,0-3.68.45,8.12,8.12,0,0,0-2.58,3.18,11.18,11.18,0,0,0-.74,7.77,5.34,5.34,0,0,0,2.16,3.33c2.28,1.43,6.91.63,7.35-2a.52.52,0,0,0-.41-.62.61.61,0,0,0-.73.35c-.3,1.82-3.29,2.45-5,1.76a3.65,3.65,0,0,1-2-2.51,9.74,9.74,0,0,1-.51-3.11,10,10,0,0,1,2-6,4,4,0,0,1,2.72-1.82,2,2,0,0,1,2,1.39c.3,1.15-.72,2.29-1.64,3a6.51,6.51,0,0,1-3.57,1.45C158.21,439.94,158.2,440.94,159,440.88Z" transform="translate(0 0)"/><path d="M168.37,433.66a4.54,4.54,0,0,1,1.53,2.62,38.81,38.81,0,0,1,1,3.81,43,43,0,0,1,.92,7.83H173a26.29,26.29,0,0,1,.43-8.71c.49-2.2,1.46-5.5,4.49-6,.75-.14.43-1.11-.31-1-3.28.59-4.61,3.85-5.21,6.29a26.93,26.93,0,0,0-.58,9.42c.07.63,1.18.67,1.18,0a45.19,45.19,0,0,0-1-8.42,35.7,35.7,0,0,0-1.08-3.93,5.1,5.1,0,0,0-1.93-2.78.68.68,0,0,0-.81.18.47.47,0,0,0,.22.67Z" transform="translate(0 0)"/><path d="M191.88,422.9a3.54,3.54,0,0,0-.67-4.26,4.16,4.16,0,0,0-4.72-.75,7.19,7.19,0,0,0-3.65,4.19,29.27,29.27,0,0,0-1.42,6.16,62.07,62.07,0,0,0-.94,13,10,10,0,0,0,1.55,5.55,6.44,6.44,0,0,0,4.52,2.6,5.18,5.18,0,0,0,3.06-.55,3.88,3.88,0,0,0,1.7-2.62,23.72,23.72,0,0,0,.61-6,.56.56,0,0,0-.59-.5.55.55,0,0,0-.59.5,24.37,24.37,0,0,1-.3,4.51,6.91,6.91,0,0,1-.73,2.51,2.68,2.68,0,0,1-2.12,1.15,5.16,5.16,0,0,1-4.12-1.6,7.48,7.48,0,0,1-1.75-4.6,40.4,40.4,0,0,1,0-5.61c.09-1.94.27-3.88.52-5.82s.57-3.76,1-5.62a11.66,11.66,0,0,1,1.89-4.81c.9-1.18,2.86-2.53,4.55-1.63a2.78,2.78,0,0,1,1.24,3.65c-.34.57.68,1.08,1,.5Z" transform="translate(0 0)"/><path d="M192,442c.09-1.85.1-3.71,0-5.57a.53.53,0,0,0-.43-.49,26.34,26.34,0,0,0-5.4-.2c-.75.05-.76,1.06,0,1a24.76,24.76,0,0,1,5.09.17l-.44-.48c.07,1.86.06,3.72,0,5.57C190.74,442.65,191.92,442.65,192,442Z" transform="translate(0 0)"/><path d="M197.79,440.35c1.7-.3,3.48.31,5.16-.16a4,4,0,0,0,2.7-2.22,2.62,2.62,0,0,0-1-3.05,4.92,4.92,0,0,0-3.49-.81,7.35,7.35,0,0,0-6.09,5,8,8,0,0,0-.23,4.06,4.55,4.55,0,0,0,2.29,3.35,9.78,9.78,0,0,0,4.83.77,7.61,7.61,0,0,0,4.42-1.71.45.45,0,0,0,0-.71.68.68,0,0,0-.81,0c-1.78,1.52-4.44,1.71-6.77,1.15a3.3,3.3,0,0,1-2.56-2.24,6.87,6.87,0,0,1-.26-3.45,6.4,6.4,0,0,1,4.21-5,4.59,4.59,0,0,1,3-.08,2,2,0,0,1,1.5,2.07,2.72,2.72,0,0,1-2.22,1.94,9.18,9.18,0,0,1-2.4,0,10.72,10.72,0,0,0-2.53.07c-.74.13-.43,1.1.32,1Z" transform="translate(0 0)"/><path d="M229.65,418.24q-1.18,6.33-2.75,12.6a91.42,91.42,0,0,1-3.54,11.66,25.2,25.2,0,0,1-3.21,5.8c-.4.55.61,1.05,1,.51a33.31,33.31,0,0,0,4.94-10.74c1.24-4.11,2.3-8.26,3.24-12.43q.78-3.56,1.46-7.13c.11-.63-1-.91-1.14-.27Z" transform="translate(0 0)"/><path d="M226.06,434.1c1.48.53,2.85-.23,4-1a15.42,15.42,0,0,0,3-2.54,26.7,26.7,0,0,0,4.43-7c.71-1.52,1.33-3.06,2-4.61.25-.61-.9-.88-1.14-.27a45.47,45.47,0,0,1-4.4,9,18.1,18.1,0,0,1-3,3.43,13.28,13.28,0,0,1-1.85,1.38c-.62.38-1.57,1-2.39.72a.65.65,0,0,0-.81.18.45.45,0,0,0,.21.68Z" transform="translate(0 0)"/><path d="M227.88,434.25a2.53,2.53,0,0,1,2.65-.23,4.08,4.08,0,0,1,1.62,1.78,20.14,20.14,0,0,1,1.66,5.7c.38,1.9.58,3.89,1.88,5.48a4.27,4.27,0,0,0,2.29,1.53,5.68,5.68,0,0,0,3.19-.31c2.09-.75,4.65-2,4.39-4.23-.07-.64-1.25-.64-1.18,0a2.33,2.33,0,0,1-1.24,2.2,11.43,11.43,0,0,1-2.93,1.26,3.22,3.22,0,0,1-2.86-.33,4.7,4.7,0,0,1-1.52-2.2,47.27,47.27,0,0,1-1.36-5.88,10.94,10.94,0,0,0-2.07-4.85,4,4,0,0,0-2.33-1.38,3.94,3.94,0,0,0-3,.75c-.57.42.26,1.13.83.71Z" transform="translate(0 0)"/><path d="M211.35,440.64c1.7-.3,3.48.31,5.16-.16a3.94,3.94,0,0,0,2.7-2.21,2.63,2.63,0,0,0-1-3.06,5,5,0,0,0-3.49-.81,7.34,7.34,0,0,0-6.09,5,8.07,8.07,0,0,0-.23,4.05,4.58,4.58,0,0,0,2.29,3.35,9.58,9.58,0,0,0,4.83.77,7.59,7.59,0,0,0,4.42-1.69.45.45,0,0,0,0-.71.68.68,0,0,0-.84,0c-1.77,1.53-4.44,1.72-6.77,1.15a3.29,3.29,0,0,1-2.56-2.23,6.78,6.78,0,0,1-.25-3.46,6.39,6.39,0,0,1,4.2-5,4.65,4.65,0,0,1,3-.07,2,2,0,0,1,1.5,2.06,2.7,2.7,0,0,1-2.22,1.94,8.77,8.77,0,0,1-2.4,0,10.72,10.72,0,0,0-2.53.07c-.74.13-.43,1.1.32,1Z" transform="translate(0 0)"/></g></g></svg>